<svg width="128" height="32" viewBox="0 0 128 32" fill="none" xmlns="http://www.w3.org/2000/svg">
<path fill-rule="evenodd" clip-rule="evenodd" d="M8.73549 12.0925L15.1428 7.04264C15.5204 6.74546 16.0323 6.68541 16.4656 6.88745C16.8989 7.0895 17.1794 7.51907 17.1905 7.99752L17.6989 27.9953C15.4363 28.07 13.2424 27.2441 11.6 25.6994C9.95765 24.1548 9.00133 22.0179 8.94153 19.7591L8.73549 12.0925Z" fill="white"/>
<path fill-rule="evenodd" clip-rule="evenodd" d="M8.93842 19.7615L2.5561 24.7665C2.17844 25.0637 1.66653 25.1237 1.23326 24.9217C0.799984 24.7196 0.519488 24.2901 0.508419 23.8116L0 4.00465C2.26256 3.93001 4.45643 4.7559 6.09882 6.30057C7.74121 7.84524 8.69752 9.98211 8.75732 12.2409L8.93842 19.7615Z" fill="white"/>
<path d="M25.7031 23.7083V8H28.4409V23.7083H25.7031Z" fill="white"/>
<path d="M41.7583 16.6171V23.7083H39.0206V17.3352C39.0206 16.8939 38.9122 16.4937 38.6952 16.1346C38.4783 15.7681 38.1866 15.4801 37.8201 15.2707C37.461 15.0538 37.0608 14.9453 36.6195 14.9453C36.1782 14.9453 35.7742 15.0538 35.4077 15.2707C35.0487 15.4801 34.7607 15.7681 34.5438 16.1346C34.3343 16.4937 34.2296 16.8939 34.2296 17.3352V23.7083H31.4919L31.4806 12.4881H34.2184L34.2296 13.4867C34.6111 13.0827 35.0674 12.7648 35.5985 12.533C36.1296 12.2936 36.7018 12.1739 37.3152 12.1739C38.1305 12.1739 38.8748 12.3759 39.548 12.7798C40.2212 13.1763 40.756 13.7111 41.1525 14.3843C41.5564 15.05 41.7583 15.7943 41.7583 16.6171Z" fill="white"/>
<path d="M54.2715 16.6171V23.7083H51.5338V17.3352C51.5338 16.8939 51.4253 16.4937 51.2084 16.1346C50.9915 15.7681 50.6997 15.4801 50.3332 15.2707C49.9742 15.0538 49.574 14.9453 49.1326 14.9453C48.6913 14.9453 48.2874 15.0538 47.9209 15.2707C47.5618 15.4801 47.2738 15.7681 47.0569 16.1346C46.8475 16.4937 46.7427 16.8939 46.7427 17.3352V23.7083H44.005L43.9938 12.4881H46.7315L46.7427 13.4867C47.1242 13.0827 47.5805 12.7648 48.1116 12.533C48.6427 12.2936 49.2149 12.1739 49.8283 12.1739C50.6436 12.1739 51.3879 12.3759 52.0611 12.7798C52.7343 13.1763 53.2692 13.7111 53.6656 14.3843C54.0695 15.05 54.2715 15.7943 54.2715 16.6171Z" fill="white"/>
<path d="M61.2247 24C60.1924 24 59.2499 23.7345 58.3972 23.2034C57.5519 22.6723 56.875 21.9617 56.3663 21.0715C55.8652 20.1739 55.6146 19.1828 55.6146 18.0982C55.6146 17.2754 55.7605 16.5086 56.0522 15.798C56.3439 15.0799 56.7441 14.4516 57.2527 13.913C57.7689 13.367 58.3673 12.9406 59.048 12.6339C59.7287 12.3273 60.4542 12.1739 61.2247 12.1739C62.2569 12.1739 63.1957 12.4395 64.041 12.9705C64.8937 13.5016 65.5706 14.216 66.0718 15.1136C66.5805 16.0112 66.8348 17.0061 66.8348 18.0982C66.8348 18.9135 66.6889 19.6765 66.3972 20.3871C66.1055 21.0977 65.7015 21.726 65.1854 22.2721C64.6768 22.8107 64.0821 23.2333 63.4014 23.54C62.7282 23.8467 62.0026 24 61.2247 24ZM61.2247 21.2623C61.7707 21.2623 62.2607 21.1164 62.6945 20.8247C63.1284 20.533 63.4687 20.1477 63.7156 19.669C63.9699 19.1903 64.0971 18.6667 64.0971 18.0982C64.0971 17.5147 63.9662 16.9836 63.7043 16.5049C63.45 16.0187 63.1022 15.6335 62.6609 15.3492C62.227 15.0575 61.7483 14.9116 61.2247 14.9116C60.6861 14.9116 60.1999 15.0575 59.7661 15.3492C59.3322 15.641 58.9881 16.0299 58.7338 16.5161C58.4795 17.0023 58.3523 17.5297 58.3523 18.0982C58.3523 18.6891 58.4832 19.2239 58.745 19.7027C59.0068 20.1814 59.3547 20.5629 59.7885 20.8471C60.2298 21.1239 60.7086 21.2623 61.2247 21.2623Z" fill="white"/>
<path d="M75.0012 23.7083H71.4668L67.3826 12.4769H70.2999L73.2396 20.5554L76.1681 12.4769H79.0853L75.0012 23.7083Z" fill="white"/>
<path d="M88.7661 12.4881H91.5038V23.7083H88.7661L88.6426 22.317C88.3359 22.8181 87.9283 23.2258 87.4196 23.54C86.9185 23.8467 86.3238 24 85.6356 24C84.8053 24 84.0274 23.8429 83.3018 23.5288C82.5763 23.2146 81.9367 22.7807 81.3832 22.2272C80.8371 21.6737 80.407 21.0341 80.0928 20.3086C79.7862 19.583 79.6328 18.805 79.6328 17.9748C79.6328 17.1744 79.7787 16.4226 80.0704 15.7195C80.3696 15.0164 80.7848 14.3993 81.3158 13.8682C81.8469 13.3371 82.4603 12.9219 83.156 12.6227C83.8516 12.3235 84.5996 12.1739 85.4 12.1739C86.1405 12.1739 86.8025 12.3385 87.386 12.6676C87.9769 12.9967 88.4781 13.4156 88.8895 13.9243L88.7661 12.4881ZM85.5683 21.3633C86.1517 21.3633 86.6679 21.2174 87.1167 20.9257C87.5655 20.6339 87.9171 20.2412 88.1714 19.7475C88.4257 19.2464 88.5529 18.6966 88.5529 18.0982C88.5529 17.4923 88.4257 16.9425 88.1714 16.4488C87.9171 15.9476 87.5618 15.5512 87.1055 15.2595C86.6567 14.9677 86.1443 14.8219 85.5683 14.8219C84.9923 14.8219 84.465 14.9715 83.9863 15.2707C83.515 15.5624 83.1373 15.9551 82.853 16.4488C82.5762 16.9425 82.4379 17.4923 82.4379 18.0982C82.4379 18.7041 82.58 19.2539 82.8642 19.7475C83.1485 20.2412 83.5262 20.6339 83.9975 20.9257C84.4762 21.2174 84.9998 21.3633 85.5683 21.3633Z" fill="white"/>
<path d="M99.7536 15.2258H97.5769V23.7083H94.8392V15.2258H93.1786V12.4881H94.8392V8.96494H97.5769V12.4881H99.7536V15.2258Z" fill="white"/>
<path d="M106.456 24C105.424 24 104.481 23.7345 103.629 23.2034C102.783 22.6723 102.106 21.9579 101.598 21.0603C101.097 20.1627 100.846 19.1716 100.846 18.087C100.846 17.2716 100.992 16.5086 101.284 15.798C101.575 15.0799 101.975 14.4516 102.484 13.913C103 13.367 103.599 12.9406 104.279 12.6339C104.96 12.3273 105.686 12.1739 106.456 12.1739C107.331 12.1739 108.132 12.3609 108.857 12.7349C109.59 13.1014 110.211 13.6064 110.72 14.2496C111.228 14.8929 111.599 15.626 111.831 16.4488C112.062 17.2716 112.115 18.1318 111.988 19.0295H103.786C103.89 19.4483 104.062 19.8261 104.302 20.1627C104.541 20.4918 104.844 20.7574 105.211 20.9593C105.577 21.1538 105.992 21.2548 106.456 21.2623C106.935 21.2698 107.369 21.1575 107.758 20.9257C108.154 20.6863 108.483 20.3647 108.745 19.9607L111.539 20.6115C111.083 21.6064 110.402 22.4217 109.497 23.0575C108.592 23.6858 107.578 24 106.456 24ZM103.696 16.9762H109.216C109.134 16.5273 108.958 16.1234 108.689 15.7644C108.427 15.3978 108.102 15.1061 107.713 14.8892C107.324 14.6723 106.905 14.5638 106.456 14.5638C106.007 14.5638 105.592 14.6723 105.211 14.8892C104.829 15.0986 104.504 15.3866 104.234 15.7532C103.973 16.1122 103.793 16.5199 103.696 16.9762Z" fill="white"/>
<path d="M112.702 23.7083L118.446 15.8093L112.769 8H116.146L120.141 13.4979L124.146 8H127.524L121.846 15.8093L127.591 23.7083H124.191L120.141 18.1431L116.101 23.7083H112.702Z" fill="white"/>
</svg>
