<svg width="28" height="34" viewBox="0 0 28 34" fill="none" xmlns="http://www.w3.org/2000/svg">
<path d="M25.0606 9.02154C25.4502 6.48146 25.0606 4.78808 23.6971 3.22495C22.2037 1.46643 19.4766 0.75 15.9703 0.75H5.90605C5.19181 0.75 4.60744 1.27104 4.47758 1.98747L0.25708 28.6909C0.192149 29.2119 0.581733 29.6678 1.10118 29.6678H7.33453L6.88001 32.4033C6.81508 32.8592 7.13973 33.25 7.65918 33.25H12.9186C13.5679 33.25 14.0873 32.7941 14.1522 32.2079L15.2561 25.3041C15.321 24.7179 15.9054 24.262 16.4898 24.262H17.2689C22.3335 24.262 26.3592 22.1779 27.528 16.1859C27.9825 13.7109 27.7877 11.5616 26.4891 10.1288C26.0995 9.67284 25.645 9.34719 25.0606 9.02154Z" fill="#009CDE"/>
<path d="M25.0606 9.02154C25.4502 6.48146 25.0606 4.78808 23.6971 3.22495C22.2036 1.46643 19.4766 0.75 15.9703 0.75H5.90605C5.19181 0.75 4.60744 1.27104 4.47757 1.98747L0.25708 28.6909C0.192149 29.2119 0.581733 29.6678 1.10118 29.6678H7.33452L8.82793 20.0286C8.95779 19.3121 9.54217 18.7911 10.2564 18.7911H13.2432C19.087 18.7911 23.6321 16.4464 24.9307 9.54258C24.9957 9.41232 24.9957 9.21693 25.0606 9.02154Z" fill="#012169"/>
<path d="M10.5811 9.08667C10.646 8.63076 11.2304 8.04459 11.8147 8.04459H19.7363C20.6453 8.04459 21.5543 8.10972 22.3335 8.23998C23.0478 8.37024 24.3464 8.69589 24.9957 9.08667C25.3853 6.54659 24.9957 4.85321 23.6321 3.29008C22.2037 1.46643 19.4766 0.75 15.9703 0.75H5.90605C5.19181 0.75 4.60744 1.27104 4.47757 1.98747L0.25708 28.6909C0.192149 29.2119 0.581733 29.6678 1.10118 29.6678H7.33453L10.5811 9.08667Z" fill="white"/>
</svg>
