<svg width="36" height="36" viewBox="0 0 36 36" fill="none" xmlns="http://www.w3.org/2000/svg">
<path d="M29.9843 0H6.01569C2.69294 0 0 2.69294 0 6.01569V29.9843C0 33.3071 2.69294 36 6.01569 36H29.9843C33.3071 36 36 33.3071 36 29.9843V6.01569C36 2.69294 33.3071 0 29.9843 0ZM29.4559 27.5556C29.4559 28.6053 28.6053 29.4559 27.5556 29.4559H8.4444C7.39473 29.4559 6.54414 28.6053 6.54414 27.5556V8.4444C6.54414 7.39473 7.39473 6.54414 8.4444 6.54414H27.5556C28.6053 6.54414 29.4559 7.39473 29.4559 8.4444V27.5556ZM14.1814 22.8864C13.5769 22.8864 13.0919 22.3977 13.0919 21.7933V14.1633C13.0919 13.5588 13.5769 13.0666 14.1814 13.0666H21.8222C22.4231 13.0666 22.9117 13.5552 22.9117 14.1633V21.7897C22.9117 22.3941 22.4231 22.8828 21.8222 22.8828H14.1814V22.8864Z" fill="white"/>
</svg>
