<svg width="23" height="32" viewBox="0 0 23 32" fill="none" xmlns="http://www.w3.org/2000/svg">
<path fill-rule="evenodd" clip-rule="evenodd" d="M8.89671 9.52967C8.89671 8.15824 10.022 7.63077 11.8857 7.63077C14.5582 7.63077 17.9341 8.43956 20.6066 9.88132V1.61758C17.6879 0.457141 14.8044 0 11.8857 0C4.74725 0 0 3.72747 0 9.95165C0 19.6571 13.3626 18.1099 13.3626 22.2945C13.3626 23.9121 11.956 24.4396 9.98682 24.4396C7.06813 24.4396 3.34066 23.244 0.386813 21.6264V29.9956C3.65714 31.4022 6.96264 32 9.98682 32C17.3011 32 22.3297 28.378 22.3297 22.0835C22.2945 11.6044 8.89671 13.4681 8.89671 9.52967Z" fill="white"/>
</svg>
