<svg width="120" height="32" viewBox="0 0 120 32" fill="none" xmlns="http://www.w3.org/2000/svg">
<path fill-rule="evenodd" clip-rule="evenodd" d="M17.4786 9.57639C17.9547 9.69011 18.3723 9.97514 18.6517 10.3771C18.9414 10.8841 19.0792 11.4636 19.049 12.0467C19.0486 12.8131 18.9314 13.575 18.7014 14.306C18.431 15.1593 18.0927 15.9896 17.6897 16.7888L17.2179 17.8254L14.8966 12.1895C14.783 11.921 14.6877 11.6452 14.611 11.364C14.5503 11.1493 14.5128 10.9287 14.4993 10.706C14.4875 10.4245 14.5882 10.1498 14.7792 9.94256C14.9701 9.73531 15.2357 9.61251 15.5172 9.60122V9.43363H8.51586V9.60122C8.75408 9.64479 8.9843 9.72432 9.19862 9.83708C9.41729 9.98415 9.60152 10.1768 9.73862 10.4019C9.98044 10.7821 10.1881 11.183 10.3593 11.5998L11.4517 14.2067L9.47793 18.1109L6.53586 11.2833C6.46013 11.1469 6.39778 11.0034 6.34965 10.855C6.32456 10.747 6.31001 10.6368 6.30621 10.526C6.30462 10.3182 6.37976 10.1171 6.51724 9.96122C6.68691 9.77807 6.90056 9.64133 7.13793 9.56397V9.4088H0V9.57639C0.580491 9.75364 1.10607 10.0763 1.5269 10.5136C2.07917 11.1489 2.53128 11.8647 2.86759 12.6364L7.38621 22.6791H7.57241L11.6441 14.6102L15.1262 22.6791H15.3124L19.4524 13.7412C19.8911 12.7233 20.445 11.7591 21.1034 10.8674C21.5335 10.3086 22.0883 9.85795 22.7234 9.55156V9.39018H17.4786V9.57639Z" fill="#54575A"/>
<path d="M28.8621 18.446C28.4152 19.5943 27.4283 20.1591 25.8703 20.1591C25.025 20.2038 24.2022 19.8774 23.6172 19.2654C23.0201 18.5442 22.7164 17.6245 22.7669 16.6895H28.9738V16.5716C28.9838 15.8275 28.7674 15.098 28.3531 14.4798C27.929 13.8826 27.3554 13.4074 26.6897 13.1019C25.9594 12.7691 25.1646 12.6016 24.3621 12.6116C23.469 12.6 22.5874 12.8134 21.7986 13.2323C21.0295 13.64 20.3858 14.2494 19.9366 14.995C19.4574 15.8012 19.2164 16.7265 19.2414 17.664C19.2228 18.5322 19.4371 19.3895 19.8621 20.1467C20.2807 20.8708 20.8906 21.4656 21.6248 21.866C22.4105 22.2932 23.2943 22.5072 24.1883 22.4867C25.3268 22.5399 26.4463 22.1807 27.3414 21.475C28.2391 20.7077 28.8424 19.6524 29.0483 18.4895L28.8621 18.446ZM23.1703 13.8095C23.3162 13.2678 23.8073 12.8912 24.3683 12.8909C24.5387 12.8916 24.7065 12.932 24.8586 13.0088C25.0181 13.0966 25.1494 13.2279 25.2372 13.3874C25.3342 13.5414 25.4133 13.7059 25.4731 13.8778C25.5525 14.1231 25.6005 14.3776 25.6159 14.635C25.6159 14.9391 25.6593 15.3612 25.6593 15.8764V16.3481H22.7669C22.7693 15.8605 22.8003 15.3734 22.86 14.8895C22.9291 14.5124 23.033 14.1426 23.1703 13.7847V13.8095Z" fill="#54575A"/>
<path d="M39.9412 20.9598C39.8813 21.0121 39.8034 21.0388 39.724 21.0343H39.513C39.3107 21.038 39.1226 20.9308 39.0226 20.755C38.88 20.4052 38.8226 20.0265 38.855 19.6502V15.1502C38.9104 14.4368 38.688 13.7296 38.2343 13.1764C37.7333 12.7088 37.0537 12.4822 36.3723 12.5557C35.6188 12.5686 34.8693 12.6664 34.1378 12.8474C33.307 13.0344 32.5009 13.3177 31.7357 13.6915C31.1118 13.9502 30.5493 14.3372 30.0847 14.8274C29.7598 15.1618 29.5678 15.6031 29.5447 16.0688C29.5298 16.4322 29.675 16.7838 29.9419 17.0308C30.2379 17.2794 30.6174 17.4059 31.0033 17.3846C31.4713 17.3717 31.9162 17.1782 32.2447 16.8446C32.6417 16.4292 32.8465 15.8664 32.8095 15.2929V14.9639C32.7791 14.4832 32.9222 14.0074 33.213 13.6233C33.4454 13.3311 33.8019 13.1655 34.175 13.1764C34.4416 13.1642 34.7049 13.2382 34.9261 13.3874C35.1635 13.5743 35.3246 13.8413 35.3792 14.1384C35.4873 14.6336 35.5352 15.14 35.5219 15.6467V16.6336C34.5599 16.9129 33.6599 17.2171 32.9337 17.5026C32.2015 17.7808 31.4865 18.102 30.7923 18.4646C30.0143 18.807 29.5006 19.5642 29.4702 20.4136C29.4624 21.0013 29.743 21.5555 30.2212 21.8971C30.7862 22.2902 31.4638 22.4885 32.1516 22.4619C32.8598 22.4744 33.5612 22.3214 34.1999 22.015C34.7319 21.7316 35.1975 21.338 35.5654 20.8605C35.6087 21.3079 35.8087 21.7256 36.1302 22.0398C36.4719 22.3416 36.9159 22.5015 37.3716 22.4867C37.883 22.494 38.3869 22.3632 38.8302 22.1081C39.3069 21.8544 39.7124 21.4852 40.0095 21.0343L39.9412 20.9598ZM34.4109 21.1274C33.6847 21.1274 33.3061 20.6308 33.3061 19.6191C33.2989 19.0123 33.5205 18.4251 33.9268 17.9743C34.3825 17.5237 34.9373 17.1857 35.5468 16.9874V19.7929C35.5721 20.1483 35.4636 20.5003 35.2426 20.7798C35.0492 21.0211 34.7505 21.1531 34.4419 21.1336L34.4109 21.1274Z" fill="#54575A"/>
<path fill-rule="evenodd" clip-rule="evenodd" d="M39.9413 21.9964C40.2735 21.9999 40.5837 21.8307 40.7606 21.5495C40.9778 21.0452 41.0674 20.4952 41.0213 19.9481V12.0715C41.0777 11.4054 40.9466 10.7367 40.6427 10.1412C40.4268 9.77716 40.029 9.56042 39.6061 9.57638V9.36534C40.3882 9.17293 41.2075 8.98672 42.0082 8.74465C42.8089 8.50258 43.6096 8.30396 44.3109 8.04948V20.3267C44.278 20.7516 44.3505 21.178 44.522 21.5681C44.6847 21.7991 44.9471 21.9394 45.2296 21.9467V22.1578H39.9413V21.9964Z" fill="#54575A"/>
<path fill-rule="evenodd" clip-rule="evenodd" d="M46.924 21.9467C46.4843 21.4433 46.271 20.7811 46.3343 20.1157V13.6419H44.9005L44.8571 13.4805C45.4294 13.198 45.9721 12.8591 46.4771 12.4688C47.0618 12.0069 47.6193 11.5116 48.1468 10.9853C48.6642 10.4639 49.1433 9.90594 49.5805 9.31567L49.7481 9.36533V12.8226H51.9081L51.4426 13.6233H49.7481V19.4764C49.7168 19.9057 49.8049 20.3353 50.0026 20.7177C50.169 20.9574 50.4433 21.0992 50.735 21.0964C50.8936 21.0878 51.0513 21.067 51.2068 21.0343C51.3587 21.0018 51.5023 20.9384 51.6288 20.8481L51.7468 21.0157C51.2513 21.4367 50.7148 21.8068 50.1454 22.1205C49.6572 22.3689 49.1166 22.4966 48.5688 22.4929C47.9718 22.5285 47.3837 22.3355 46.924 21.9529V21.9467Z" fill="#54575A"/>
<path fill-rule="evenodd" clip-rule="evenodd" d="M62.1187 21.5929C61.9636 21.1318 61.9003 20.6446 61.9325 20.1591V15.2433C61.9325 13.4805 61.2001 12.5867 59.7663 12.5867C59.3835 12.5787 59.0019 12.6332 58.6367 12.7481C58.2384 12.8893 57.859 13.079 57.507 13.3129C57.1346 13.5736 56.6629 13.9336 56.1229 14.3743V8.09294C55.3656 8.3288 54.6208 8.56466 53.8387 8.77569C53.0567 8.98673 52.2622 9.19776 51.3932 9.39638V9.60742C51.8162 9.59146 52.2139 9.8082 52.4298 10.1722C52.7215 10.7695 52.85 11.4334 52.8022 12.0964V19.7929C52.8525 20.3864 52.7566 20.9831 52.5229 21.5309C52.3359 21.8295 52.0062 22.0085 51.6539 22.0026V22.2136H57.0167V22.0026C56.7341 21.9969 56.4752 21.8439 56.3339 21.5991C56.1549 21.1436 56.0827 20.6531 56.1229 20.1653V14.7033C56.3548 14.4993 56.6164 14.3319 56.8987 14.2067C57.1161 14.094 57.3555 14.0304 57.6001 14.0205C57.9154 14.0134 58.2107 14.1741 58.376 14.4426C58.6034 14.8844 58.7023 15.3812 58.6615 15.8764V20.1591C58.6692 20.5369 58.6463 20.9147 58.5932 21.2888C58.5717 21.4865 58.4791 21.6696 58.3325 21.804C58.175 21.9191 57.9874 21.986 57.7925 21.9964V22.2074H62.8015V21.9964C62.5172 21.9972 62.2552 21.8424 62.1187 21.5929Z" fill="#54575A"/>
<path fill-rule="evenodd" clip-rule="evenodd" d="M66.3765 22.3502C65.9297 22.2509 65.5076 22.1826 65.1352 22.1143C64.8103 22.0461 64.4801 22.0066 64.1483 21.9964C63.9985 22.0007 63.8492 22.0153 63.7014 22.0398C63.5801 22.0787 63.4619 22.1264 63.3476 22.1826V17.8378L63.54 17.7881C64.0934 18.6817 64.716 19.5305 65.4021 20.3267C65.8404 20.8576 66.365 21.3108 66.9538 21.6674C67.3815 21.9196 67.8664 22.0585 68.3628 22.0709C68.7209 22.1036 69.0775 21.9944 69.3559 21.7667C69.5646 21.554 69.6748 21.2637 69.66 20.966C69.6762 20.5901 69.5209 20.2271 69.2379 19.9791C68.7749 19.6346 68.2621 19.3626 67.7172 19.1723L66.3517 18.6323C65.5066 18.343 64.7248 17.8942 64.049 17.3102C63.6098 16.8675 63.3719 16.2638 63.391 15.6405C63.3741 15.0873 63.5303 14.5427 63.8379 14.0826C64.159 13.6 64.6053 13.2138 65.129 12.9654C65.7621 12.6711 66.4545 12.5266 67.1524 12.5433C67.5681 12.5383 67.9835 12.5695 68.3938 12.6364C68.791 12.7109 69.1697 12.7543 69.4738 12.8288C69.7779 12.9033 70.0386 12.9219 70.2062 12.9219C70.3155 12.9352 70.4259 12.9352 70.5352 12.9219L70.7462 12.8536L71.0069 16.3791L70.8393 16.4288C70.2605 15.4475 69.5482 14.5513 68.7228 13.766C68.2186 13.2811 67.5588 12.9908 66.8607 12.9467C66.5194 12.9276 66.1831 13.036 65.9172 13.2509C65.6685 13.4514 65.5283 13.757 65.5386 14.0764C65.5218 14.4219 65.6607 14.7567 65.9172 14.9888C66.2827 15.2906 66.7048 15.5163 67.1586 15.6529L68.7786 16.1929C69.5885 16.4127 70.3378 16.8138 70.9697 17.366C71.4139 17.8155 71.6521 18.429 71.6276 19.0605C71.6682 20.0169 71.2788 20.9414 70.5662 21.5805C69.7612 22.2203 68.7505 22.5447 67.7234 22.4929C67.2653 22.4856 66.8085 22.4399 66.3579 22.3564L66.3765 22.3502Z" fill="#54575A"/>
<path fill-rule="evenodd" clip-rule="evenodd" d="M74.3277 11.9723C74.864 11.9876 75.3832 11.7826 75.7644 11.405C76.1455 11.0274 76.3553 10.5101 76.3449 9.97363C76.3318 9.46918 76.1328 8.98735 75.7863 8.62053C75.4168 8.20667 74.8821 7.97911 74.3277 7.99984C73.9845 7.996 73.6478 8.09313 73.3594 8.27915C73.0586 8.46122 72.8054 8.71227 72.6208 9.01156C72.4394 9.30008 72.3406 9.63285 72.3353 9.97363C72.3398 10.5104 72.5641 11.0219 72.956 11.3888C73.312 11.7658 73.8092 11.9773 74.3277 11.9723Z" fill="#54575A"/>
<path fill-rule="evenodd" clip-rule="evenodd" d="M93.5875 21.6178C93.4116 21.218 93.3391 20.7805 93.3764 20.3454V15.2433C93.3764 13.4805 92.6502 12.5868 91.2164 12.5868C90.8162 12.5891 90.4186 12.6518 90.0371 12.773C89.6194 12.9249 89.2247 13.1338 88.864 13.3936C88.4328 13.6756 88.0183 13.9823 87.6226 14.3123C87.567 13.8704 87.3584 13.4619 87.033 13.1578C86.5961 12.7824 86.0317 12.589 85.4564 12.6178C84.8099 12.6237 84.1731 12.7765 83.5943 13.0647C82.9813 13.3521 82.4194 13.7379 81.9309 14.2067V12.5868C81.484 12.7481 80.9875 12.9405 80.4475 13.1019C79.9075 13.2633 79.3675 13.4557 78.8275 13.6233C78.2875 13.7909 77.8406 13.9026 77.4619 13.9957V14.2067C77.8286 14.2136 78.166 14.4081 78.3557 14.7219C78.5669 15.2929 78.6557 15.902 78.6164 16.5095V20.3454C78.6584 20.7889 78.5322 21.232 78.2626 21.5868C78.0401 21.8169 77.7324 21.9449 77.4123 21.9405C77.0757 21.9671 76.7457 21.8365 76.5185 21.5868C76.2791 21.2195 76.1718 20.7817 76.2143 20.3454V12.5185C75.4881 12.7978 74.7309 13.0585 73.9364 13.2943C73.1419 13.5302 72.3102 13.7599 71.4847 13.9523V14.1385C71.9374 14.1394 72.3576 14.3741 72.5957 14.7592C72.8491 15.3457 72.9617 15.9834 72.9247 16.6212V19.7247C72.9592 20.3097 72.8704 20.8955 72.664 21.444C72.4878 21.7712 72.1417 21.9707 71.7702 21.9592V22.1702H82.8247V21.9592C82.5447 21.9297 82.2934 21.7744 82.1419 21.5371C81.9695 21.1473 81.8969 20.7206 81.9309 20.2957V14.6102C82.1108 14.4334 82.3211 14.2905 82.5516 14.1881C82.7787 14.0743 83.03 14.0168 83.284 14.0205C83.6099 13.9975 83.9229 14.1517 84.1033 14.424C84.3125 14.8714 84.4023 15.3654 84.364 15.8578V20.3268C84.3998 20.7517 84.3272 21.1789 84.153 21.5681C84.0067 21.7921 83.7622 21.9328 83.495 21.9467V22.1578H88.5723V21.9467C88.294 21.9303 88.0373 21.7917 87.8709 21.5681C87.7117 21.1574 87.646 20.7164 87.6785 20.2771V14.5854C87.884 14.4023 88.104 14.2362 88.3364 14.0888C88.5582 13.9564 88.8106 13.8837 89.0688 13.8778C89.3856 13.8707 89.6819 14.0342 89.8447 14.3061C90.0693 14.7731 90.1657 15.2915 90.124 15.8081V20.2771C90.1629 20.7161 90.1079 21.1583 89.9626 21.5743C89.8058 21.8083 89.5361 21.9408 89.255 21.9219V22.133H94.3447V21.9219C94.0525 22.0036 93.742 21.8788 93.5875 21.6178Z" fill="#54575A"/>
<path d="M104.667 15.2929C104.559 14.7469 104.316 14.2367 103.959 13.8095C103.362 13.0121 102.417 12.5503 101.421 12.5681C100.896 12.5579 100.375 12.6617 99.8938 12.8723C99.4243 13.0947 98.9878 13.3808 98.5966 13.7226V12.5619C98.1497 12.7295 97.6345 12.8909 97.0945 13.0833C96.5545 13.2757 95.9897 13.4309 95.4248 13.5985C94.86 13.766 94.3634 13.9026 93.8979 14.0205V14.2067C94.1929 14.2373 94.4794 14.3237 94.7421 14.4612C94.9713 14.6316 95.1231 14.8862 95.1641 15.1688C95.2709 15.6074 95.3189 16.0582 95.3069 16.5095V23.0267C95.3281 23.5638 95.2716 24.101 95.1393 24.6219C95.0718 24.9363 94.8877 25.2135 94.6241 25.3978C94.3572 25.5517 94.0614 25.6489 93.7552 25.6833V25.8943H100.055V25.6833C99.6325 25.6837 99.2275 25.5136 98.9317 25.2116C98.6637 24.7499 98.5466 24.2161 98.5966 23.6847V21.9033C98.8118 22.0667 99.0532 22.1926 99.3103 22.2757C99.6765 22.3875 100.057 22.444 100.44 22.4433C101.027 22.4427 101.608 22.3311 102.153 22.1143C102.687 21.8849 103.169 21.5491 103.568 21.1274C103.997 20.6477 104.324 20.086 104.53 19.4764C104.78 18.7818 104.904 18.0483 104.897 17.3102C104.898 16.6226 104.819 15.9372 104.661 15.2681L104.667 15.2929ZM100.831 20.8791C100.617 21.4432 100.092 21.8295 99.4903 21.866C99.2899 21.8667 99.0914 21.8266 98.9069 21.7481C98.7858 21.6868 98.6748 21.6073 98.5779 21.5123V14.064C98.8859 13.791 99.273 13.6235 99.6828 13.586C100.173 13.586 100.577 13.915 100.924 14.5481C101.301 15.5219 101.462 16.566 101.396 17.6081C101.396 19.135 101.228 20.2212 100.85 20.8791H100.831Z" fill="#54575A"/>
<path fill-rule="evenodd" clip-rule="evenodd" d="M104.785 21.9964C105.119 22.0009 105.431 21.8317 105.61 21.5495C105.821 21.0436 105.908 20.4946 105.865 19.9481V12.0716C105.919 11.4062 105.791 10.7385 105.492 10.1412C105.276 9.77718 104.879 9.56044 104.456 9.5764V9.36536C105.232 9.17295 106.057 8.98674 106.858 8.74467C107.658 8.5026 108.453 8.29778 109.161 8.04329V20.3267C109.125 20.7517 109.197 21.1789 109.372 21.5681C109.534 21.7991 109.797 21.9395 110.079 21.9467V22.1578H104.785V21.9964Z" fill="#54575A"/>
<path d="M119.582 18.446C119.135 19.5943 118.123 20.1591 116.59 20.1591C115.746 20.1988 114.925 19.8732 114.337 19.2653C113.736 18.5476 113.44 17.623 113.512 16.6895H119.719V16.5715C119.725 15.828 119.509 15.0995 119.098 14.4798C118.673 13.8849 118.105 13.4067 117.447 13.0895C115.88 12.389 114.079 12.4416 112.556 13.2322C111.786 13.6395 111.143 14.249 110.694 14.995C110.213 15.7963 109.967 16.7171 109.986 17.6515C109.968 18.5197 110.182 19.377 110.607 20.1343C111.028 20.8586 111.64 21.4533 112.376 21.8536C113.161 22.2816 114.045 22.4957 114.939 22.4743C116.083 22.527 117.209 22.1681 118.111 21.4626C118.996 20.6939 119.59 19.6442 119.793 18.4895L119.582 18.446ZM113.89 13.8095C114.05 13.2774 114.533 12.9074 115.088 12.8909C115.259 12.8916 115.426 12.932 115.579 13.0088C115.738 13.0966 115.869 13.2279 115.957 13.3874C116.054 13.5414 116.133 13.7059 116.193 13.8778C116.272 14.1231 116.32 14.3776 116.336 14.635C116.336 14.9391 116.379 15.3612 116.379 15.8764V16.3481H113.487C113.489 15.8605 113.52 15.3734 113.58 14.8895C113.649 14.5124 113.753 14.1426 113.89 13.7846V13.8095Z" fill="#54575A"/>
</svg>
