<svg width="164" height="48" viewBox="0 0 164 48" fill="none" xmlns="http://www.w3.org/2000/svg">
<g clip-path="url(#clip0_2779_68287)">
<path d="M10.4785 32.0001C9.62186 31.1397 8.94421 30.1196 8.48433 28.9981C8.02445 27.8767 7.79137 26.6759 7.79844 25.4647C7.79532 24.2535 8.03486 23.0538 8.50303 21.9358C8.9712 20.8178 9.65862 19.8039 10.5251 18.9535C10.8962 18.6251 11.1962 18.2248 11.4065 17.777C11.6168 17.3293 11.7331 16.8435 11.7482 16.3495C11.7633 15.8555 11.677 15.3636 11.4945 14.9039C11.3119 14.4443 11.0371 14.0265 10.6867 13.6763C10.3363 13.326 9.9178 13.0506 9.45676 12.867C8.99573 12.6833 8.50188 12.5953 8.00547 12.6082C7.50905 12.6211 7.0205 12.7347 6.56974 12.9421C6.11898 13.1495 5.7155 13.4463 5.38399 13.8143C2.27015 16.8952 0.513382 21.081 0.500076 25.4511C0.48677 29.8211 2.21802 34.0175 5.31303 37.1171C5.64346 37.4846 6.04562 37.7813 6.495 37.989C6.94438 38.1968 7.43155 38.3112 7.92683 38.3255C8.42211 38.3397 8.91511 38.2534 9.37578 38.0718C9.83646 37.8902 10.2551 37.6172 10.6063 37.2693C10.9575 36.9214 11.2338 36.5059 11.4185 36.0483C11.6031 35.5906 11.6921 35.1004 11.6801 34.6074C11.6682 34.1143 11.5555 33.6289 11.3489 33.1807C11.1423 32.7324 10.8461 32.3308 10.4785 32.0001Z" fill="#888888"/>
<path d="M10.5253 18.9532C12.2715 17.2326 14.6319 16.2713 17.0891 16.28C19.5462 16.2887 21.8996 17.2667 23.6335 18.9996C23.9628 19.3709 24.3649 19.6714 24.8151 19.8823C25.2653 20.0933 25.7541 20.2104 26.2515 20.2264C26.7488 20.2425 27.2442 20.1571 27.7072 19.9755C28.1702 19.7939 28.591 19.52 28.9437 19.1706C29.2964 18.8212 29.5735 18.4037 29.7582 17.9438C29.9428 17.4838 30.0309 16.9912 30.0172 16.4961C30.0034 16.001 29.8881 15.5139 29.6782 15.0648C29.4684 14.6157 29.1685 14.2141 28.7969 13.8846C27.2701 12.3453 25.4527 11.1214 23.4493 10.2832C21.4458 9.44499 19.2958 9.00895 17.1225 9.00014C14.9493 8.99132 12.7957 9.40991 10.7855 10.2319C8.77524 11.0538 6.94795 12.2629 5.40856 13.7898C5.03605 14.1165 4.73444 14.5154 4.52218 14.9621C4.30993 15.4088 4.19149 15.8939 4.17411 16.3877C4.15674 16.8816 4.24079 17.3737 4.42114 17.8341C4.60148 18.2945 4.87432 18.7134 5.22295 19.0653C5.57158 19.4171 5.98868 19.6944 6.44871 19.8802C6.90874 20.066 7.40203 20.1564 7.89839 20.1459C8.39475 20.1355 8.88374 20.0243 9.33543 19.8192C9.78712 19.6141 10.192 19.3194 10.5253 18.9532Z" fill="#888888"/>
<path d="M23.6116 32.0462C22.7475 32.9005 21.7226 33.5768 20.5955 34.0362C19.4684 34.4957 18.2613 34.7293 17.0434 34.7238C15.8257 34.7256 14.62 34.4856 13.4967 34.0178C12.3733 33.5501 11.3551 32.8641 10.5014 31.9998C10.1715 31.6304 9.76933 31.3319 9.31948 31.1226C8.86962 30.9132 8.38158 30.7975 7.88522 30.7824C7.38886 30.7674 6.89464 30.8533 6.43281 31.035C5.97098 31.2167 5.55127 31.4902 5.19937 31.839C4.84747 32.1877 4.57079 32.6043 4.38627 33.0631C4.20175 33.522 4.11327 34.0135 4.12625 34.5076C4.13923 35.0017 4.2534 35.488 4.46176 35.9366C4.67012 36.3853 4.9683 36.7869 5.33803 37.1168C6.86751 38.656 8.68713 39.8796 10.6926 40.7175C12.6981 41.5554 14.85 41.9912 17.025 41.9998C19.2 42.0084 21.3554 41.5898 23.3675 40.7678C25.3796 39.9458 27.209 38.7366 28.7507 37.2096C29.0913 36.8738 29.3622 36.4744 29.5477 36.0344C29.7333 35.5944 29.83 35.1223 29.8322 34.6451C29.8345 34.1678 29.7423 33.6948 29.5609 33.2531C29.3795 32.8113 29.1125 32.4095 28.775 32.0705C28.4376 31.7314 28.0364 31.4619 27.5943 31.2772C27.1522 31.0925 26.6778 30.9962 26.1984 30.994C25.7189 30.9917 25.2437 31.0835 24.7999 31.2641C24.356 31.4446 23.9523 31.7104 23.6116 32.0462Z" fill="#888888"/>
<path d="M10.5247 18.9531C10.0132 19.4615 9.36155 19.8073 8.65235 19.9466C7.94315 20.0859 7.20836 20.0124 6.54119 19.7354C5.87402 19.4585 5.30454 18.9905 4.90497 18.3909C4.50541 17.7913 4.29377 17.0871 4.29691 16.3676C4.30004 15.6482 4.51781 14.9458 4.92259 14.3497C5.32736 13.7536 5.9009 13.2906 6.57046 13.0194C7.24002 12.7482 7.97542 12.681 8.68338 12.8264C9.39134 12.9718 10.04 13.3232 10.547 13.8361C11.2224 14.5193 11.5991 15.4406 11.5949 16.3991C11.5908 17.3577 11.206 18.2757 10.5247 18.9531Z" fill="#888888"/>
<path d="M10.4533 37.1167C9.94167 37.6249 9.28988 37.9705 8.58062 38.1095C7.87136 38.2485 7.13661 38.1747 6.46955 37.8975C5.80249 37.6202 5.23319 37.152 4.83387 36.5523C4.43454 35.9526 4.22318 35.2483 4.2266 34.5288C4.23002 33.8093 4.44807 33.1071 4.85308 32.5111C5.25809 31.9152 5.83181 31.4524 6.50148 31.1814C7.17114 30.9105 7.90657 30.8436 8.61447 30.9893C9.32238 31.135 9.97086 31.4866 10.4777 31.9997C11.1528 32.6832 11.5292 33.6047 11.5246 34.5632C11.5201 35.5217 11.135 36.4396 10.4533 37.1167Z" fill="#888888"/>
<path d="M45.0339 29.0241C46.0861 28.2331 46.226 28.675 47.1139 29.5588C47.5579 30.0007 48.7722 30.7694 47.9775 31.4192C46.3192 32.767 44.8231 33.3723 42.7067 33.3723C37.9163 33.3501 34.5287 29.7908 34.8004 25.0693C34.916 22.9547 35.7573 20.9531 37.4176 19.5811C38.936 18.3018 40.8274 17.7449 42.8141 17.7914C43.7878 17.7885 44.7525 17.9778 45.6523 18.3483C46.2617 18.5673 46.836 18.8731 47.3572 19.2562C48.4093 20.0633 47.9187 20.5355 47.0997 21.3486C46.9132 21.5343 46.7267 21.7219 46.5625 21.9075C46.1428 22.3252 45.8611 22.6279 45.3015 22.2324C44.2271 21.4878 42.8688 21.0924 41.5856 21.4253C37.45 22.4705 37.6365 29.7969 42.7087 29.8211C43.5495 29.8101 44.3646 29.5307 45.0339 29.0241ZM159.993 33.4631C159.827 33.4639 159.663 33.432 159.509 33.3693C159.356 33.3065 159.216 33.2141 159.099 33.0974C158.981 32.9808 158.888 32.8421 158.825 32.6895C158.762 32.5368 158.73 32.3732 158.73 32.2081L158.801 15.9754C158.8 15.8103 158.832 15.6466 158.895 15.4939C158.958 15.3411 159.051 15.2023 159.168 15.0855C159.286 14.9686 159.425 14.876 159.578 14.813C159.732 14.75 159.896 14.7178 160.062 14.7183H161.418C161.584 14.7178 161.749 14.75 161.902 14.8132C162.056 14.8763 162.195 14.9691 162.312 15.0862C162.43 15.2032 162.522 15.3423 162.585 15.4953C162.648 15.6482 162.68 15.8121 162.679 15.9774L162.608 32.2101C162.609 32.3751 162.577 32.5387 162.514 32.6913C162.451 32.844 162.358 32.9826 162.241 33.0993C162.123 33.216 161.984 33.3085 161.831 33.3712C161.677 33.434 161.513 33.4659 161.347 33.4651L159.993 33.4631ZM152.898 31.5806C151.426 32.9526 150.023 33.673 147.943 33.673C143.739 33.6488 141.728 30.1843 141.728 26.3002L141.752 19.6961C141.751 19.5311 141.784 19.3676 141.847 19.215C141.91 19.0625 142.003 18.924 142.121 18.8075C142.238 18.6909 142.378 18.5988 142.531 18.5362C142.685 18.4737 142.849 18.442 143.015 18.4431H144.371C144.537 18.4423 144.701 18.4742 144.855 18.537C145.008 18.5998 145.147 18.6922 145.264 18.8089C145.382 18.9256 145.475 19.0643 145.538 19.2169C145.601 19.3695 145.633 19.5331 145.632 19.6981L145.61 26.3022C145.61 28.4652 146.777 30.1621 149.068 30.1621C151.359 30.1621 152.76 28.2553 152.782 26.1266V23.7679C152.764 23.6763 152.756 23.5828 152.76 23.4894L152.782 19.7445C152.781 19.5795 152.813 19.4159 152.876 19.2633C152.94 19.1107 153.032 18.972 153.15 18.8553C153.267 18.7386 153.406 18.6462 153.56 18.5834C153.713 18.5206 153.877 18.4887 154.043 18.4895H155.381C155.547 18.4887 155.711 18.5206 155.865 18.5834C156.018 18.6462 156.157 18.7386 156.274 18.8553C156.392 18.972 156.485 19.1107 156.548 19.2633C156.611 19.4159 156.643 19.5795 156.642 19.7445L156.597 32.2101C156.594 32.5399 156.46 32.855 156.223 33.0862C155.987 33.3173 155.668 33.4456 155.336 33.4429H154.191C153.866 33.4328 153.557 33.2997 153.326 33.0707C153.096 32.8416 152.963 32.5339 152.952 32.2101L152.898 31.5806ZM136.767 18.4895H139.384C139.55 18.4918 139.714 18.5269 139.866 18.5926C140.018 18.6583 140.156 18.7533 140.271 18.8723C140.386 18.9912 140.477 19.1316 140.537 19.2855C140.597 19.4394 140.626 19.6036 140.623 19.7687V20.6283C140.62 20.9596 140.487 21.2767 140.252 21.5114C140.017 21.7461 139.699 21.8796 139.366 21.8833H136.743L136.696 32.1395C136.697 32.3046 136.665 32.4683 136.602 32.621C136.539 32.7738 136.446 32.9126 136.328 33.0294C136.211 33.1463 136.072 33.2389 135.919 33.3019C135.765 33.3649 135.601 33.3971 135.435 33.3965H134.081C133.915 33.3971 133.75 33.3649 133.597 33.3019C133.443 33.239 133.304 33.1464 133.187 33.0295C133.069 32.9127 132.976 32.7739 132.913 32.6212C132.85 32.4684 132.817 32.3047 132.818 32.1395L132.864 17.9548C132.864 14.8616 134.64 12.4181 137.819 12.1397C137.912 12.1397 137.981 12.1175 138.074 12.1175C138.261 12.1054 138.449 12.1054 138.636 12.1175H139.852C140.018 12.1198 140.182 12.1548 140.334 12.2204C140.486 12.2859 140.624 12.3808 140.739 12.4995C140.854 12.6183 140.944 12.7585 141.005 12.9121C141.065 13.0657 141.094 13.2297 141.091 13.3947V14.1857C141.089 14.518 140.955 14.8363 140.719 15.0715C140.483 15.3067 140.164 15.4401 139.83 15.4427H138.849C137.353 15.4427 136.722 16.5807 136.698 17.977L136.767 18.4895ZM127.375 18.4431H130.243C130.575 18.4463 130.891 18.5802 131.123 18.8155C131.356 19.0509 131.485 19.3683 131.482 19.6981V20.5577C131.479 20.8875 131.344 21.2026 131.108 21.4337C130.871 21.6649 130.552 21.7932 130.221 21.7905H127.35L127.328 28.0657C127.328 29.2763 127.912 29.9724 129.126 29.9724H129.71C130.042 29.9762 130.358 30.1106 130.59 30.3462C130.823 30.5818 130.951 30.8995 130.949 31.2295V32.1012C130.945 32.4308 130.81 32.7456 130.574 32.9766C130.338 33.2077 130.019 33.3361 129.688 33.334H128.589C128.386 33.338 128.183 33.3299 127.981 33.3098C124.873 33.108 123.494 31.1024 123.494 28.0778C123.519 24.008 123.519 19.9624 123.541 15.8927C123.543 15.7292 123.577 15.5676 123.641 15.4172C123.705 15.2667 123.799 15.1304 123.916 15.0159C124.033 14.9014 124.172 14.811 124.324 14.7499C124.477 14.6889 124.64 14.6582 124.804 14.6598H126.136C126.467 14.663 126.784 14.797 127.016 15.0323C127.248 15.2676 127.377 15.585 127.375 15.9149V18.4431ZM85.8161 18.2796H88.6846C89.016 18.2828 89.3326 18.4168 89.5648 18.6521C89.797 18.8874 89.926 19.2048 89.9233 19.5347V20.3983C89.9195 20.7279 89.7848 21.0427 89.5485 21.2737C89.3122 21.5048 88.9936 21.6333 88.6623 21.6311H85.7836V27.9083C85.7836 29.1189 86.3675 29.8151 87.5818 29.8151H88.1677C88.3317 29.8166 88.4937 29.8504 88.6446 29.9143C88.7955 29.9782 88.9323 30.0711 89.0471 30.1876C89.162 30.3042 89.2526 30.4421 89.3139 30.5935C89.3752 30.7449 89.4059 30.9069 89.4043 31.0701V31.9296C89.4011 32.2595 89.2665 32.5746 89.0301 32.8057C88.7937 33.0368 88.4747 33.1652 88.1433 33.1625H87.2797C83.8902 33.1403 81.9278 31.6976 81.9278 27.9164C81.9521 23.8466 81.9521 19.799 81.9744 15.7292C81.9782 15.3992 82.1132 15.0841 82.35 14.853C82.5867 14.622 82.9058 14.4937 83.2374 14.4964H84.5693C84.9007 14.5001 85.2171 14.6346 85.4489 14.8703C85.6808 15.106 85.8092 15.4236 85.8059 15.7534L85.8161 18.2796ZM68.9473 20.0472C70.3259 18.7679 71.822 17.9548 73.76 17.9548C77.9666 17.977 80.1398 21.3849 80.1155 25.3256L80.0931 31.9296C80.0937 32.0949 80.0614 32.2586 79.9981 32.4113C79.9348 32.5641 79.8418 32.7029 79.7244 32.8197C79.607 32.9365 79.4676 33.0291 79.3141 33.0921C79.1607 33.1551 78.9962 33.1872 78.8302 33.1867H77.476C77.31 33.1872 77.1455 33.1551 76.992 33.0921C76.8385 33.0291 76.6991 32.9365 76.5817 32.8197C76.4643 32.7029 76.3713 32.5641 76.308 32.4113C76.2448 32.2586 76.2125 32.0949 76.213 31.9296L76.2373 25.372C76.2373 23.209 75.0696 21.5121 72.7788 21.5121C70.4881 21.5121 69.0872 23.3966 69.0649 25.5354L69.0406 31.9296C69.0374 32.2595 68.9028 32.5746 68.6664 32.8057C68.43 33.0368 68.111 33.1652 67.7797 33.1625H66.4478C66.1164 33.1593 65.7998 33.0253 65.5676 32.79C65.3353 32.5547 65.2064 32.2373 65.2091 31.9074C65.2314 27.9305 65.2314 23.9313 65.2557 19.9544V19.4197C65.2568 19.0902 65.3891 18.7746 65.6235 18.542C65.858 18.3094 66.1755 18.1788 66.5065 18.1788H67.6519C67.9774 18.1884 68.2868 18.3214 68.5171 18.5505C68.7473 18.7797 68.8809 19.0877 68.8906 19.4116L68.9473 20.0472ZM110.585 20.2086C111.964 18.9314 113.458 18.1162 115.398 18.1162C119.604 18.1404 121.775 21.5585 121.753 25.489L121.729 32.1012C121.73 32.2663 121.697 32.4299 121.634 32.5827C121.571 32.7354 121.479 32.8742 121.361 32.9911C121.244 33.1079 121.105 33.2006 120.951 33.2636C120.798 33.3266 120.634 33.3587 120.468 33.3582H119.114C118.948 33.3587 118.783 33.3266 118.63 33.2636C118.476 33.2006 118.337 33.108 118.219 32.9912C118.102 32.8744 118.009 32.7356 117.946 32.5828C117.882 32.4301 117.85 32.2664 117.851 32.1012L117.875 25.5435C117.875 23.3805 116.705 21.6836 114.416 21.6836C112.128 21.6836 110.725 23.5661 110.701 25.7069L110.668 32.1012C110.664 32.4312 110.529 32.7462 110.293 32.9773C110.056 33.2084 109.737 33.3367 109.405 33.334H108.073C107.742 33.3303 107.426 33.1961 107.194 32.9608C106.963 32.7256 106.834 32.4084 106.837 32.079L106.883 19.5892C106.884 19.425 106.917 19.2625 106.981 19.1112C107.045 18.9598 107.138 18.8225 107.255 18.7072C107.373 18.5918 107.512 18.5007 107.665 18.4391C107.818 18.3775 107.981 18.3467 108.146 18.3483H109.292C109.618 18.359 109.928 18.4938 110.158 18.7249C110.388 18.956 110.521 19.266 110.528 19.5912L110.585 20.2086ZM56.2264 17.8378C51.6691 17.8136 48.4458 21.0924 48.4215 25.604C48.3992 30.1621 51.5759 33.3965 56.1797 33.4187C60.7836 33.4409 64.0069 30.2327 64.0292 25.6444C64.0536 21.163 60.7593 17.86 56.2264 17.8378ZM94.0548 27.1637C94.3812 29.2561 96.3922 30.1157 98.3546 30.1399C99.3383 30.1313 100.309 29.9176 101.205 29.5124C101.349 29.454 101.489 29.3866 101.625 29.3106C102.093 29.0544 102.512 28.8929 102.934 29.3106C103.167 29.5427 103.378 29.7767 103.611 29.9845C103.831 30.1937 104.035 30.4197 104.219 30.6605C104.85 31.4494 104.406 31.6371 103.682 32.1254C102.139 33.1484 100.13 33.6588 98.2836 33.6588C93.3311 33.6366 90.0591 30.6322 90.0591 25.6605C90.0834 20.9612 93.3534 17.8458 98.0728 17.868C102.888 17.8922 105.62 20.707 105.691 25.4971C105.713 26.7985 105.76 27.2182 104.406 27.2182L94.0548 27.1637ZM56.2264 21.3486C58.5861 21.3486 60.1511 23.3966 60.1511 25.6525C60.1511 28.0011 58.6793 29.8897 56.202 29.8897C53.7247 29.8897 52.2773 27.9829 52.2773 25.6343C52.2773 23.2857 53.7734 21.3486 56.2264 21.3486ZM94.1582 23.9313L101.916 23.9535C101.635 22.0226 100.023 21.2558 98.1782 21.2558C96.3334 21.2558 94.7319 22.1174 94.1582 23.9313Z" fill="#888888"/>
</g>
<defs>
<clipPath id="clip0_2779_68287">
<rect width="163" height="48" fill="white" transform="translate(0.5)"/>
</clipPath>
</defs>
</svg>
