<svg width="24" height="24" viewBox="0 0 24 24" fill="none" xmlns="http://www.w3.org/2000/svg">
<path d="M12 22C17.5 22 22 17.5 22 12C22 6.5 17.5 2 12 2C6.5 2 2 6.5 2 12C2 17.5 6.5 22 12 22Z" fill="#E6BDBB"/>
<path fill-rule="evenodd" clip-rule="evenodd" d="M15.539 8.46282C15.9295 8.85334 15.9295 9.4865 15.539 9.87703L9.87898 15.537C9.48846 15.9276 8.85529 15.9276 8.46477 15.537C8.07424 15.1465 8.07424 14.5133 8.46477 14.1228L14.1248 8.46282C14.5153 8.07229 15.1485 8.07229 15.539 8.46282Z" fill="#030303"/>
<path fill-rule="evenodd" clip-rule="evenodd" d="M8.46477 8.46282C8.85529 8.07229 9.48846 8.07229 9.87898 8.46282L15.539 14.1228C15.9295 14.5133 15.9295 15.1465 15.539 15.537C15.1485 15.9276 14.5153 15.9276 14.1248 15.537L8.46477 9.87703C8.07424 9.4865 8.07424 8.85334 8.46477 8.46282Z" fill="#030303"/>
</svg>
