<svg width="24" height="24" viewBox="0 0 24 24" fill="none" xmlns="http://www.w3.org/2000/svg">
<path fill-rule="evenodd" clip-rule="evenodd" d="M18.8095 16.6855V18.2857C18.8095 20.8893 16.6989 23 14.0952 23H5.71429C3.11066 23 1 20.8893 1 18.2857V9.90476C1 7.30113 3.11066 5.19048 5.71429 5.19048H7.31449C7.57505 2.83336 9.57343 1 12 1H18.2857C20.8893 1 23 3.11066 23 5.71429V12C23 14.4266 21.1666 16.4249 18.8095 16.6855ZM7.28571 8.33333H5.71429C4.84641 8.33333 4.14286 9.03689 4.14286 9.90476V18.2857C4.14286 19.1536 4.84641 19.8571 5.71429 19.8571H14.0952C14.9631 19.8571 15.6667 19.1536 15.6667 18.2857V16.7143H12C9.39637 16.7143 7.28571 14.6036 7.28571 12V8.33333ZM10.4286 5.71429C10.4286 4.84641 11.1321 4.14286 12 4.14286H18.2857C19.1536 4.14286 19.8571 4.84641 19.8571 5.71429V12C19.8571 12.8679 19.1536 13.5714 18.2857 13.5714H12C11.1321 13.5714 10.4286 12.8679 10.4286 12V5.71429Z" fill="#3FA477"/>
</svg>
