<svg width="163" height="48" viewBox="0 0 163 48" fill="" xmlns="http://www.w3.org/2000/svg">
    <style>

    @media (prefers-color-scheme: dark) {
      :root {
        --svg-fill: white;
      }
    }
  </style>

<path d="M9.97846 32.0001C9.12186 31.1397 8.44421 30.1196 7.98433 28.9981C7.52445 27.8767 7.29137 26.6759 7.29844 25.4647C7.29532 24.2535 7.53486 23.0538 8.00303 21.9358C8.4712 20.8178 9.15862 19.8039 10.0251 18.9535C10.3962 18.6251 10.6962 18.2248 10.9065 17.777C11.1168 17.3293 11.2331 16.8435 11.2482 16.3495C11.2633 15.8555 11.177 15.3636 10.9945 14.9039C10.8119 14.4443 10.5371 14.0265 10.1867 13.6763C9.83631 13.326 9.4178 13.0506 8.95676 12.867C8.49573 12.6833 8.00188 12.5953 7.50547 12.6082C7.00905 12.6211 6.5205 12.7347 6.06974 12.9421C5.61898 13.1495 5.2155 13.4463 4.88399 13.8143C1.77015 16.8952 0.0133822 21.081 7.61375e-05 25.4511C-0.01323 29.8211 1.71802 34.0175 4.81303 37.1171C5.14346 37.4846 5.54562 37.7813 5.995 37.989C6.44438 38.1968 6.93155 38.3112 7.42683 38.3255C7.92211 38.3397 8.41511 38.2534 8.87578 38.0718C9.33646 37.8902 9.75515 37.6172 10.1063 37.2693C10.4575 36.9214 10.7338 36.5059 10.9185 36.0483C11.1031 35.5906 11.1921 35.1004 11.1801 34.6074C11.1682 34.1143 11.0555 33.6289 10.8489 33.1807C10.6423 32.7324 10.3461 32.3308 9.97846 32.0001Z" fill="#FFDA00"/>
<path d="M10.0253 18.9532C11.7715 17.2326 14.1319 16.2713 16.5891 16.28C19.0462 16.2887 21.3996 17.2667 23.1335 18.9996C23.4628 19.3709 23.8649 19.6714 24.3151 19.8823C24.7653 20.0933 25.2541 20.2104 25.7515 20.2264C26.2488 20.2425 26.7442 20.1571 27.2072 19.9755C27.6702 19.7939 28.091 19.52 28.4437 19.1706C28.7964 18.8212 29.0735 18.4037 29.2582 17.9438C29.4428 17.4838 29.5309 16.9912 29.5172 16.4961C29.5034 16.001 29.3881 15.5139 29.1782 15.0648C28.9684 14.6157 28.6685 14.2141 28.2969 13.8846C26.7701 12.3453 24.9527 11.1214 22.9493 10.2832C20.9458 9.44499 18.7958 9.00895 16.6225 9.00014C14.4493 8.99132 12.2957 9.40991 10.2855 10.2319C8.27524 11.0538 6.44795 12.2629 4.90856 13.7898C4.53605 14.1165 4.23444 14.5154 4.02218 14.9621C3.80993 15.4088 3.69149 15.8939 3.67411 16.3877C3.65674 16.8816 3.74079 17.3737 3.92114 17.8341C4.10148 18.2945 4.37432 18.7134 4.72295 19.0653C5.07158 19.4171 5.48868 19.6944 5.94871 19.8802C6.40874 20.066 6.90203 20.1564 7.39839 20.1459C7.89475 20.1355 8.38374 20.0243 8.83543 19.8192C9.28712 19.6141 9.69202 19.3194 10.0253 18.9532Z" fill="#67B3FF"/>
<path d="M23.1097 32.0462C22.2456 32.9005 21.2206 33.5768 20.0935 34.0362C18.9664 34.4957 17.7593 34.7293 16.5414 34.7238C15.3238 34.7256 14.118 34.4856 12.9947 34.0178C11.8714 33.5501 10.8531 32.8641 9.99948 31.9998C9.66957 31.6304 9.26738 31.3319 8.81752 31.1226C8.36767 30.9132 7.87962 30.7975 7.38327 30.7824C6.88691 30.7674 6.39269 30.8533 5.93086 31.035C5.46903 31.2167 5.04932 31.4902 4.69742 31.839C4.34552 32.1877 4.06884 32.6043 3.88431 33.0631C3.69979 33.522 3.61131 34.0135 3.62429 34.5076C3.63727 35.0017 3.75144 35.488 3.95981 35.9366C4.16817 36.3853 4.46635 36.7869 4.83608 37.1168C6.36555 38.656 8.18518 39.8796 10.1907 40.7175C12.1961 41.5554 14.3481 41.9912 16.5231 41.9998C18.6981 42.0084 20.8534 41.5898 22.8655 40.7678C24.8777 39.9458 26.707 38.7366 28.2488 37.2096C28.5894 36.8738 28.8602 36.4744 29.0458 36.0344C29.2314 35.5944 29.328 35.1223 29.3303 34.6451C29.3326 34.1678 29.2404 33.6948 29.059 33.2531C28.8776 32.8113 28.6105 32.4095 28.2731 32.0705C27.9356 31.7314 27.5344 31.4619 27.0923 31.2772C26.6502 31.0925 26.1759 30.9962 25.6964 30.994C25.217 30.9917 24.7417 31.0835 24.2979 31.2641C23.8541 31.4446 23.4503 31.7104 23.1097 32.0462Z" fill="#EB5A68"/>
<path d="M10.0247 18.9531C9.51321 19.4615 8.86155 19.8073 8.15235 19.9466C7.44315 20.0859 6.70836 20.0124 6.04119 19.7354C5.37402 19.4585 4.80454 18.9905 4.40497 18.3909C4.00541 17.7913 3.79377 17.0871 3.79691 16.3676C3.80004 15.6482 4.01781 14.9458 4.42259 14.3497C4.82736 13.7536 5.4009 13.2906 6.07046 13.0194C6.74002 12.7482 7.47542 12.681 8.18338 12.8264C8.89134 12.9718 9.53996 13.3232 10.047 13.8361C10.7224 14.5193 11.0991 15.4406 11.0949 16.3991C11.0908 17.3577 10.706 18.2757 10.0247 18.9531Z" fill="#47A1FF"/>
<path d="M9.95333 37.1169C9.44167 37.6252 8.78988 37.9707 8.08062 38.1097C7.37136 38.2487 6.63661 38.1749 5.96955 37.8977C5.30249 37.6205 4.73319 37.1523 4.33387 36.5525C3.93454 35.9528 3.72318 35.2485 3.7266 34.529C3.73002 33.8096 3.94807 33.1073 4.35308 32.5114C4.75809 31.9154 5.33181 31.4526 6.00148 31.1817C6.67114 30.9107 7.40657 30.8439 8.11447 30.9895C8.82238 31.1352 9.47086 31.4869 9.97765 31.9999C10.6528 32.6834 11.0292 33.6049 11.0246 34.5634C11.0201 35.5219 10.635 36.4398 9.95333 37.1169Z" fill="#D5465F"/>
<path d="M44.5339 29.0239C45.5861 28.2329 45.726 28.6748 46.6139 29.5586C47.0579 30.0004 48.2722 30.7692 47.4775 31.4189C45.8192 32.7668 44.3231 33.3721 42.2067 33.3721C37.4163 33.3499 34.0287 29.7906 34.3004 25.0691C34.416 22.9545 35.2573 20.9529 36.9176 19.5808C38.436 18.3016 40.3274 17.7447 42.3141 17.7911C43.2878 17.7882 44.2525 17.9775 45.1523 18.348C45.7617 18.567 46.336 18.8729 46.8572 19.256C47.9093 20.0631 47.4187 20.5352 46.5997 21.3484C46.4132 21.534 46.2267 21.7217 46.0625 21.9073C45.6428 22.325 45.3611 22.6276 44.8015 22.2322C43.7271 21.4876 42.3688 21.0921 41.0856 21.4251C36.95 22.4702 37.1365 29.7966 42.2087 29.8209C43.0495 29.8098 43.8646 29.5305 44.5339 29.0239ZM159.493 33.4629C159.327 33.4637 159.163 33.4318 159.009 33.369C158.856 33.3063 158.716 33.2139 158.599 33.0972C158.481 32.9805 158.388 32.8419 158.325 32.6892C158.262 32.5366 158.23 32.373 158.23 32.2078L158.301 15.9751C158.3 15.81 158.332 15.6464 158.395 15.4936C158.458 15.3409 158.551 15.2021 158.668 15.0852C158.786 14.9683 158.925 14.8757 159.078 14.8127C159.232 14.7497 159.396 14.7176 159.562 14.7181H160.918C161.084 14.7176 161.249 14.7498 161.402 14.8129C161.556 14.8761 161.695 14.9688 161.812 15.0859C161.93 15.203 162.022 15.342 162.085 15.495C162.148 15.648 162.18 15.8119 162.179 15.9772L162.108 32.2099C162.109 32.3749 162.077 32.5385 162.014 32.6911C161.951 32.8437 161.858 32.9824 161.741 33.0991C161.623 33.2158 161.484 33.3082 161.331 33.371C161.177 33.4338 161.013 33.4657 160.847 33.4649L159.493 33.4629ZM152.398 31.5803C150.926 32.9524 149.523 33.6727 147.443 33.6727C143.239 33.6485 141.228 30.1841 141.228 26.2999L141.252 19.6959C141.251 19.5308 141.284 19.3673 141.347 19.2148C141.41 19.0622 141.503 18.9237 141.621 18.8072C141.738 18.6907 141.878 18.5985 142.031 18.536C142.185 18.4734 142.349 18.4418 142.515 18.4428H143.871C144.037 18.442 144.201 18.474 144.355 18.5367C144.508 18.5995 144.647 18.6919 144.764 18.8086C144.882 18.9253 144.975 19.064 145.038 19.2166C145.101 19.3693 145.133 19.5328 145.132 19.6979L145.11 26.3019C145.11 28.4649 146.277 30.1619 148.568 30.1619C150.859 30.1619 152.26 28.2551 152.282 26.1264V23.7676C152.264 23.676 152.256 23.5826 152.26 23.4892L152.282 19.7443C152.281 19.5792 152.313 19.4157 152.376 19.2631C152.44 19.1104 152.532 18.9718 152.65 18.8551C152.767 18.7383 152.906 18.6459 153.06 18.5831C153.213 18.5204 153.377 18.4884 153.543 18.4892H154.881C155.047 18.4884 155.211 18.5204 155.365 18.5831C155.518 18.6459 155.657 18.7383 155.774 18.8551C155.892 18.9718 155.985 19.1104 156.048 19.2631C156.111 19.4157 156.143 19.5792 156.142 19.7443L156.097 32.2099C156.094 32.5397 155.96 32.8548 155.723 33.0859C155.487 33.3171 155.168 33.4454 154.836 33.4427H153.691C153.366 33.4326 153.057 33.2995 152.826 33.0704C152.596 32.8414 152.463 32.5336 152.452 32.2099L152.398 31.5803ZM136.267 18.4892H138.884C139.05 18.4916 139.214 18.5266 139.366 18.5923C139.518 18.658 139.656 18.7531 139.771 18.872C139.886 18.9909 139.977 19.1314 140.037 19.2853C140.097 19.4391 140.126 19.6034 140.123 19.7685V20.628C140.12 20.9594 139.987 21.2765 139.752 21.5112C139.517 21.7459 139.199 21.8794 138.866 21.8831H136.243L136.196 32.1392C136.197 32.3044 136.165 32.468 136.102 32.6208C136.039 32.7735 135.946 32.9123 135.828 33.0292C135.711 33.146 135.572 33.2386 135.419 33.3017C135.265 33.3647 135.101 33.3968 134.935 33.3963H133.581C133.415 33.3968 133.25 33.3647 133.097 33.3017C132.943 33.2387 132.804 33.1461 132.687 33.0293C132.569 32.9125 132.476 32.7737 132.413 32.6209C132.35 32.4682 132.317 32.3045 132.318 32.1392L132.364 17.9545C132.364 14.8614 134.14 12.4179 137.319 12.1394C137.412 12.1394 137.481 12.1172 137.574 12.1172C137.761 12.1051 137.949 12.1051 138.136 12.1172H139.352C139.518 12.1196 139.682 12.1546 139.834 12.2201C139.986 12.2857 140.124 12.3806 140.239 12.4993C140.354 12.618 140.444 12.7582 140.505 12.9119C140.565 13.0655 140.594 13.2295 140.591 13.3945V14.1854C140.589 14.5178 140.455 14.836 140.219 15.0712C139.983 15.3065 139.664 15.4398 139.33 15.4425H138.349C136.853 15.4425 136.222 16.5805 136.198 17.9767L136.267 18.4892ZM126.875 18.4428H129.743C130.075 18.446 130.391 18.58 130.623 18.8153C130.856 19.0506 130.985 19.368 130.982 19.6979V20.5574C130.979 20.8873 130.844 21.2023 130.608 21.4335C130.371 21.6646 130.052 21.793 129.721 21.7903H126.85L126.828 28.0654C126.828 29.2761 127.412 29.9722 128.626 29.9722H129.21C129.542 29.9759 129.858 30.1103 130.09 30.346C130.323 30.5816 130.451 30.8992 130.449 31.2292V32.1009C130.445 32.4306 130.31 32.7453 130.074 32.9764C129.838 33.2074 129.519 33.3359 129.188 33.3337H128.089C127.886 33.3378 127.683 33.3297 127.481 33.3095C124.373 33.1078 122.994 31.1021 122.994 28.0775C123.019 24.0078 123.019 19.9622 123.041 15.8924C123.043 15.7289 123.077 15.5674 123.141 15.4169C123.205 15.2665 123.299 15.1301 123.416 15.0156C123.533 14.9012 123.672 14.8108 123.824 14.7497C123.977 14.6886 124.14 14.658 124.304 14.6596H125.636C125.967 14.6628 126.284 14.7967 126.516 15.032C126.748 15.2674 126.877 15.5848 126.875 15.9146V18.4428ZM85.3161 18.2794H88.1846C88.516 18.2826 88.8326 18.4166 89.0648 18.6519C89.297 18.8872 89.426 19.2046 89.4233 19.5344V20.398C89.4195 20.7277 89.2848 21.0425 89.0485 21.2735C88.8122 21.5045 88.4936 21.633 88.1623 21.6309H85.2836V27.908C85.2836 29.1187 85.8675 29.8148 87.0818 29.8148H87.6677C87.8317 29.8164 87.9937 29.8501 88.1446 29.914C88.2955 29.978 88.4323 30.0709 88.5471 30.1874C88.662 30.3039 88.7526 30.4419 88.8139 30.5933C88.8752 30.7447 88.9059 30.9066 88.9043 31.0698V31.9294C88.9011 32.2592 88.7665 32.5743 88.5301 32.8055C88.2937 33.0366 87.9747 33.1649 87.6433 33.1622H86.7797C83.3902 33.14 81.4278 31.6974 81.4278 27.9161C81.4521 23.8463 81.4521 19.7988 81.4744 15.729C81.4782 15.399 81.6132 15.0839 81.85 14.8528C82.0867 14.6217 82.4058 14.4935 82.7374 14.4961H84.0693C84.4007 14.4999 84.7171 14.6343 84.9489 14.87C85.1808 15.1057 85.3092 15.4234 85.3059 15.7532L85.3161 18.2794ZM68.4473 20.0469C69.8259 18.7677 71.322 17.9545 73.26 17.9545C77.4666 17.9767 79.6398 21.3847 79.6155 25.3253L79.5931 31.9294C79.5937 32.0946 79.5614 32.2583 79.4981 32.4111C79.4348 32.5638 79.3418 32.7026 79.2244 32.8195C79.107 32.9363 78.9676 33.0289 78.8141 33.0918C78.6607 33.1548 78.4962 33.187 78.3302 33.1864H76.976C76.81 33.187 76.6455 33.1548 76.492 33.0918C76.3385 33.0289 76.1991 32.9363 76.0817 32.8195C75.9643 32.7026 75.8713 32.5638 75.808 32.4111C75.7448 32.2583 75.7125 32.0946 75.713 31.9294L75.7373 25.3718C75.7373 23.2087 74.5696 21.5118 72.2788 21.5118C69.9881 21.5118 68.5872 23.3964 68.5649 25.5352L68.5406 31.9294C68.5374 32.2592 68.4028 32.5743 68.1664 32.8055C67.93 33.0366 67.611 33.1649 67.2797 33.1622H65.9478C65.6164 33.159 65.2998 33.0251 65.0676 32.7898C64.8353 32.5545 64.7064 32.237 64.7091 31.9072C64.7314 27.9302 64.7314 23.9311 64.7557 19.9541V19.4194C64.7568 19.0899 64.8891 18.7743 65.1235 18.5417C65.358 18.3091 65.6755 18.1785 66.0065 18.1785H67.1519C67.4774 18.1881 67.7868 18.3211 68.0171 18.5503C68.2473 18.7794 68.3809 19.0874 68.3906 19.4114L68.4473 20.0469ZM110.085 20.2084C111.464 18.9311 112.958 18.116 114.898 18.116C119.104 18.1402 121.275 21.5582 121.253 25.4888L121.229 32.1009C121.23 32.266 121.197 32.4297 121.134 32.5824C121.071 32.7352 120.979 32.874 120.861 32.9908C120.744 33.1077 120.605 33.2003 120.451 33.2633C120.298 33.3263 120.134 33.3585 119.968 33.358H118.614C118.448 33.3585 118.283 33.3263 118.13 33.2634C117.976 33.2004 117.837 33.1078 117.719 32.991C117.602 32.8741 117.509 32.7353 117.446 32.5826C117.382 32.4298 117.35 32.2661 117.351 32.1009L117.375 25.5433C117.375 23.3802 116.205 21.6833 113.916 21.6833C111.628 21.6833 110.225 23.5659 110.201 25.7067L110.168 32.1009C110.164 32.4309 110.029 32.746 109.793 32.9771C109.556 33.2082 109.237 33.3364 108.905 33.3337H107.573C107.242 33.33 106.926 33.1958 106.694 32.9606C106.463 32.7253 106.334 32.4082 106.337 32.0787L106.383 19.5889C106.384 19.4247 106.417 19.2623 106.481 19.1109C106.545 18.9596 106.638 18.8222 106.755 18.7069C106.873 18.5916 107.012 18.5005 107.165 18.4389C107.318 18.3773 107.481 18.3464 107.646 18.348H108.792C109.118 18.3587 109.428 18.4935 109.658 18.7246C109.888 18.9558 110.021 19.2657 110.028 19.5909L110.085 20.2084ZM55.7264 17.8375C51.1691 17.8133 47.9458 21.0921 47.9215 25.6038C47.8992 30.1619 51.0759 33.3963 55.6797 33.4185C60.2836 33.4407 63.5069 30.2325 63.5292 25.6441C63.5536 21.1628 60.2593 17.8597 55.7264 17.8375ZM93.5548 27.1635C93.8812 29.2559 95.8922 30.1155 97.8546 30.1397C98.8383 30.1311 99.8093 29.9173 100.705 29.5121C100.849 29.4538 100.989 29.3864 101.125 29.3104C101.593 29.0541 102.012 28.8927 102.434 29.3104C102.667 29.5424 102.878 29.7765 103.111 29.9843C103.331 30.1934 103.535 30.4194 103.719 30.6602C104.35 31.4492 103.906 31.6368 103.182 32.1251C101.639 33.1481 99.6305 33.6586 97.7836 33.6586C92.8311 33.6364 89.5591 30.632 89.5591 25.6603C89.5834 20.961 92.8534 17.8456 97.5728 17.8678C102.388 17.892 105.12 20.7067 105.191 25.4969C105.213 26.7983 105.26 27.218 103.906 27.218L93.5548 27.1635ZM55.7264 21.3484C58.0861 21.3484 59.6511 23.3964 59.6511 25.6522C59.6511 28.0009 58.1793 29.8895 55.702 29.8895C53.2247 29.8895 51.7773 27.9827 51.7773 25.6341C51.7773 23.2854 53.2734 21.3484 55.7264 21.3484ZM93.6582 23.9311L101.416 23.9533C101.135 22.0223 99.523 21.2556 97.6782 21.2556C95.8334 21.2556 94.2319 22.1171 93.6582 23.9311Z" fill="#29303A"/>
</svg>
