<svg width="115" height="48" viewBox="0 0 115 48" fill="none" xmlns="http://www.w3.org/2000/svg">
<path d="M93.1001 14.56C94.5917 14.56 95.7484 13.3788 95.7484 11.8948C95.7484 10.441 94.5917 9.25983 93.1001 9.25983C91.639 9.25983 90.4214 10.441 90.4214 11.8948C90.391 13.3788 91.639 14.56 93.1001 14.56Z" fill="#2C3242"/>
<path d="M70.2705 16.4075H74.2581V18.8304C75.2626 17.3766 77.4847 16.044 80.1025 16.044C85.0641 16.044 88.8387 20.2539 88.8387 25.433C88.8387 30.5818 85.0641 34.8219 80.1025 34.8219C77.4847 34.8219 75.293 33.4893 74.2581 32.0355V41.9999H70.2705V16.4075ZM79.3719 19.6482C76.1453 19.6482 73.9233 22.1619 73.9233 25.433C73.9233 28.6737 76.1453 31.2178 79.3719 31.2178C82.5681 31.2178 84.7902 28.704 84.7902 25.433C84.7902 22.1923 82.5681 19.6482 79.3719 19.6482Z" fill="#2C3242"/>
<path d="M98.0314 16.4075H102.019V18.8607C103.115 17.0435 105.184 16.044 107.528 16.044C111.729 16.044 114.469 19.0121 114.469 23.5855V34.4585H110.481V24.2518C110.481 21.4048 109.02 19.6785 106.707 19.6785C104.058 19.6785 102.019 21.738 102.019 25.5844V34.4585H98.0314V16.4075Z" fill="#2C3242"/>
<path d="M39.8917 16.044C37.5479 16.044 35.478 17.0435 34.3822 18.8607V9.25977H30.3945V34.4585H34.3822V25.5844C34.3822 21.7379 36.4216 19.6784 39.0698 19.6784C41.3832 19.6784 42.8443 21.4048 42.8443 24.2518V34.4585H46.8319V23.5855C46.8015 19.0121 44.0923 16.044 39.8917 16.044Z" fill="#2C3242"/>
<path d="M95.0483 16.4076H91.0607V34.4586H95.0483V16.4076Z" fill="#2C3242"/>
<path d="M58.5514 34.8219C53.194 34.8219 49.0542 30.6727 49.0542 25.433C49.0542 20.1933 53.194 16.0441 58.5514 16.0441C63.9087 16.0441 68.0485 20.1933 68.0485 25.433C68.0485 30.6727 63.9087 34.8219 58.5514 34.8219ZM58.5514 31.127C61.7475 31.127 64 28.6434 64 25.433C64 22.2226 61.7475 19.7391 58.5514 19.7391C55.3248 19.7391 53.0723 22.2226 53.0723 25.433C53.0723 28.6434 55.3248 31.127 58.5514 31.127Z" fill="#2C3242"/>
<path d="M15.8738 14.0869C15.8434 15.2938 14.9929 17.0135 13.5652 17.0135C12.6842 17.0135 11.9552 16.2894 11.9552 15.4144V15.3843C11.9248 13.9663 11.287 12.7293 10.2845 11.8543C9.52507 11.2207 8.5834 10.7984 7.55058 10.6777C8.4315 9.77256 9.67695 9.22949 11.0439 9.22949C12.7754 9.22949 14.3549 10.2251 15.2662 11.6733C15.6915 12.3974 15.9042 13.2723 15.8738 14.0869Z" fill="#175FFF"/>
<path d="M10.2239 14.2076C10.9833 15.173 11.439 17.0134 10.3454 17.9185C9.64673 18.4918 8.6443 18.4013 8.06714 17.7375C7.12547 16.6816 5.81926 16.1385 4.51306 16.1083C3.51063 16.0781 2.5082 16.3799 1.65765 16.9531C1.74879 15.7161 2.32595 14.4791 3.38912 13.6042C4.75608 12.4879 6.66981 12.156 8.31015 12.8197C9.06957 13.0913 9.73786 13.574 10.2239 14.2076Z" fill="#175FFF"/>
<path d="M5.97106 17.8885C7.15576 18.1299 8.73535 19.2764 8.49234 20.6642C8.34045 21.5392 7.48991 22.1124 6.60897 21.9616H6.5786C5.18127 21.7504 3.81432 22.1728 2.81189 22.9873C2.05247 23.5907 1.44494 24.4657 1.17154 25.4613C0.442502 24.4355 0.108359 23.1382 0.320996 21.7806C0.65514 20.0608 1.90059 18.6126 3.60168 18.0394C4.3611 17.798 5.21165 17.7377 5.97106 17.8885Z" fill="#175FFF"/>
<path d="M5.09013 23.4398C6.15332 22.8666 8.09742 22.7458 8.79609 23.9527C9.25174 24.707 8.97834 25.7025 8.21893 26.1551C7.00386 26.8792 6.24444 28.0558 5.97105 29.3531C5.78879 30.3186 5.87992 31.3444 6.33557 32.2797C5.1205 31.978 3.99656 31.1936 3.32828 30.017C2.44735 28.4782 2.47772 26.5775 3.38903 25.069C3.81431 24.3751 4.39147 23.8018 5.09013 23.4398Z" fill="#175FFF"/>
<path d="M8.00607 28.2369C8.46173 27.1206 9.85905 25.7931 11.1653 26.2758C12.0158 26.5775 12.4411 27.5128 12.1373 28.3275C11.6816 29.6549 11.8639 31.0427 12.5019 32.1893C12.9879 33.0642 13.7169 33.7581 14.6586 34.2106C13.5042 34.7537 12.1676 34.8745 10.8919 34.3917C9.22114 33.7882 8.00607 32.3099 7.73268 30.56C7.64155 29.7757 7.73268 28.961 8.00607 28.2369Z" fill="#175FFF"/>
<path d="M13.3526 30.047C12.9577 28.9005 13.1703 26.9997 14.5068 26.517C15.3574 26.2154 16.2687 26.6378 16.5725 27.4825C17.0889 28.7799 18.1217 29.7453 19.3671 30.2281C20.2784 30.59 21.3417 30.6504 22.344 30.409C21.8277 31.5555 20.8556 32.4908 19.5798 32.9736C17.909 33.5769 15.9953 33.2149 14.6892 32.0382C14.0816 31.465 13.5956 30.8012 13.3526 30.047Z" fill="#175FFF"/>
<path d="M18.638 28.0258C17.6052 27.3922 16.5117 25.7931 17.2407 24.5864C17.6964 23.8321 18.6684 23.5606 19.4582 23.983C20.7036 24.6467 22.1009 24.7372 23.3768 24.3148C24.3184 23.983 25.169 23.3795 25.7765 22.5348C26.1107 23.7416 25.9892 25.0691 25.2905 26.2457C24.4096 27.7844 22.7085 28.7197 20.9467 28.6594C20.0961 28.6594 19.2759 28.4482 18.638 28.0258Z" fill="#175FFF"/>
<path d="M21.372 23.1078C20.1568 23.2889 18.3039 22.7457 18.0609 21.358C17.8786 20.5132 18.4861 19.6684 19.3671 19.5175H19.3974C20.7948 19.246 21.9187 18.4012 22.587 17.2849C23.1034 16.4401 23.3464 15.4445 23.2553 14.4187C24.2881 15.1126 25.0779 16.229 25.2905 17.5564C25.5943 19.2762 24.8956 21.0864 23.5287 22.1725C22.8908 22.6553 22.1314 23.0173 21.372 23.1078Z" fill="#175FFF"/>
<path d="M20.2784 17.617C19.4583 18.5221 17.6964 19.3065 16.6028 18.4014C15.9042 17.8282 15.813 16.8325 16.3902 16.1386C17.2711 15.0525 17.6052 13.6646 17.3926 12.3673C17.2408 11.4018 16.7851 10.4666 16.0561 9.7123C17.3015 9.59162 18.6077 9.95366 19.6709 10.8286C21.0378 11.9449 21.6758 13.7853 21.3112 15.505C21.1593 16.2895 20.7948 17.0437 20.2784 17.617Z" fill="#175FFF"/>
</svg>
