<svg width="40" height="40" viewBox="0 0 40 40" fill="none" xmlns="http://www.w3.org/2000/svg">
<circle cx="20" cy="20" r="18" fill="#EE2A23"/>
<path d="M12 29.226C12 29.1004 12.1199 28.9971 12.2701 28.9971H29.2268C29.3801 28.9971 29.5 29.1004 29.5 29.226V31.7728C29.5 31.8984 29.3801 32 29.2268 32H12.2701C12.1199 32 12 31.8984 12 31.7728V29.226Z" fill="white"/>
<path fill-rule="evenodd" clip-rule="evenodd" d="M20.7521 9.5C22.6072 9.5 23.1901 10.5982 23.6792 11.6947L28.8503 23.3837C28.8889 23.4749 28.8629 23.6247 28.6929 23.6789C28.5219 23.7323 26.0171 24.5361 25.8784 24.5792C25.7397 24.6231 25.5843 24.5594 25.5343 24.4449C25.4822 24.3322 24.4425 21.9567 24.3257 21.6916H17.1805C17.0679 21.9567 16.0158 24.3373 15.9688 24.4449C15.9209 24.5542 15.7717 24.6282 15.6237 24.5792C15.4756 24.531 12.9614 23.7271 12.8113 23.6789C12.6674 23.6324 12.6017 23.4973 12.6517 23.3837C12.829 22.9757 17.5768 12.2542 17.8187 11.6947C18.2901 10.6146 18.8928 9.5 20.7521 9.5ZM18.3203 19.0441L20.7667 13.0581L23.1901 19.0441H18.3203Z" fill="white"/>
</svg>
