<svg width="40" height="40" viewBox="0 0 40 40" fill="none" xmlns="http://www.w3.org/2000/svg">
<path d="M20 2C10.0719 2 2 10.0719 2 20C2 29.9281 10.0719 38 20 38C29.9281 38 38 29.9281 38 20C38 10.0719 29.9281 2 20 2Z" fill="#81B441"/>
<path d="M26.2964 9.95947C17.8117 10.5208 15.2498 18.4365 15.0328 22.4863C15.0328 23.1526 12.8933 21.8039 14.1659 15.9895C14.275 15.4911 14.1659 14.8958 14.1659 14.8958C9.74733 18.7823 10.1273 26.1306 15.5592 29.1181C19.7699 31.434 25.2438 29.9603 27.6649 25.6443C30.5071 20.6967 27.9807 10.9069 26.2964 9.95947Z" fill="white"/>
</svg>
