<svg width="84" height="24" viewBox="0 0 84 24" fill="none" xmlns="http://www.w3.org/2000/svg">
<path d="M75.9272 23.1999H73.1382V8.04204H75.9272V9.13341C76.2506 8.73593 76.6346 8.41256 77.0793 8.1633C77.5239 7.9073 78.0426 7.7793 78.6355 7.7793C79.3698 7.7793 80.0569 7.9174 80.6969 8.19361C81.3437 8.46983 81.9096 8.85383 82.3946 9.34562C82.8797 9.83067 83.2603 10.3932 83.5365 11.0332C83.8127 11.6732 83.9508 12.3604 83.9508 13.0947C83.9508 13.829 83.8127 14.5195 83.5365 15.1663C83.2603 15.813 82.8797 16.3823 82.3946 16.874C81.9096 17.3591 81.3437 17.7397 80.6969 18.0159C80.0569 18.2921 79.3698 18.4303 78.6355 18.4303C78.0426 18.4303 77.5239 18.3023 77.0793 18.0463C76.6346 17.7903 76.2506 17.4669 75.9272 17.0761V23.1999ZM78.595 10.4572C78.1369 10.4572 77.7226 10.5785 77.3521 10.821C76.9883 11.0568 76.6986 11.3734 76.483 11.7709C76.2742 12.1684 76.1698 12.6096 76.1698 13.0947C76.1698 13.5797 76.2742 14.0244 76.483 14.4286C76.6986 14.826 76.9883 15.1427 77.3521 15.3785C77.7226 15.6143 78.1369 15.7321 78.595 15.7321C79.0531 15.7321 79.4708 15.6143 79.8481 15.3785C80.2321 15.1427 80.5353 14.826 80.7576 14.4286C80.9866 14.0311 81.1011 13.5865 81.1011 13.0947C81.1011 12.6164 80.99 12.1785 80.7677 11.781C80.5454 11.3768 80.2422 11.0568 79.8582 10.821C79.4809 10.5785 79.0599 10.4572 78.595 10.4572Z" fill="#030303"/>
<path d="M68.3186 8.04205H71.1076V18.1473H68.3085L68.1771 17.0964C67.9143 17.4871 67.5775 17.8037 67.1666 18.0463C66.7556 18.2888 66.2739 18.4101 65.7215 18.4101C64.967 18.4101 64.263 18.2686 63.6095 17.9856C62.956 17.7027 62.38 17.3119 61.8815 16.8134C61.383 16.3149 60.9922 15.7389 60.7093 15.0854C60.4331 14.4252 60.295 13.7178 60.295 12.9633C60.295 12.2425 60.4263 11.5688 60.6891 10.9423C60.9518 10.3157 61.3223 9.76331 61.8007 9.285C62.279 8.80668 62.828 8.43278 63.4478 8.16331C64.0743 7.89384 64.748 7.7591 65.4689 7.7591C66.0887 7.7591 66.6444 7.89047 67.1362 8.15321C67.6348 8.41594 68.0693 8.74942 68.4398 9.15363L68.3186 8.04205ZM65.6508 15.7322C66.1089 15.7322 66.5232 15.6143 66.8937 15.3785C67.2642 15.1427 67.5573 14.8261 67.7729 14.4286C67.9885 14.0244 68.0962 13.5797 68.0962 13.0947C68.0962 12.6029 67.9885 12.1583 67.7729 11.7608C67.5573 11.3633 67.2642 11.0467 66.8937 10.8109C66.5232 10.5751 66.1089 10.4572 65.6508 10.4572C65.1859 10.4572 64.7649 10.5751 64.3876 10.8109C64.0103 11.0467 63.7106 11.3667 63.4882 11.7709C63.2659 12.1684 63.1548 12.6096 63.1548 13.0947C63.1548 13.5797 63.2659 14.0244 63.4882 14.4286C63.7173 14.8261 64.0205 15.1427 64.3977 15.3785C64.775 15.6143 65.1927 15.7322 65.6508 15.7322Z" fill="#030303"/>
<path d="M57.0375 8.04205H60.0084L54.4707 23.1999H51.52L53.339 18.1473L49.7011 8.04205H52.7528L54.7335 14.3376L57.0375 8.04205Z" fill="#030303"/>
<path d="M45.9172 8.04205H48.7063V18.1473H45.9071L45.7757 17.0964C45.513 17.4871 45.1762 17.8037 44.7652 18.0463C44.3543 18.2888 43.8726 18.4101 43.3202 18.4101C42.5656 18.4101 41.8616 18.2686 41.2082 17.9856C40.5547 17.7027 39.9787 17.3119 39.4802 16.8134C38.9816 16.3149 38.5909 15.7389 38.308 15.0854C38.0317 14.4252 37.8936 13.7178 37.8936 12.9633C37.8936 12.2425 38.025 11.5688 38.2877 10.9423C38.5505 10.3157 38.921 9.76331 39.3993 9.285C39.8776 8.80668 40.4267 8.43278 41.0465 8.16331C41.673 7.89384 42.3467 7.7591 43.0675 7.7591C43.6873 7.7591 44.2431 7.89047 44.7349 8.15321C45.2334 8.41594 45.668 8.74942 46.0385 9.15363L45.9172 8.04205ZM43.2494 15.7322C43.7075 15.7322 44.1219 15.6143 44.4924 15.3785C44.8629 15.1427 45.156 14.8261 45.3715 14.4286C45.5871 14.0244 45.6949 13.5797 45.6949 13.0947C45.6949 12.6029 45.5871 12.1583 45.3715 11.7608C45.156 11.3633 44.8629 11.0467 44.4924 10.8109C44.1219 10.5751 43.7075 10.4572 43.2494 10.4572C42.7846 10.4572 42.3635 10.5751 41.9863 10.8109C41.609 11.0467 41.3092 11.3667 41.0869 11.7709C40.8646 12.1684 40.7534 12.6096 40.7534 13.0947C40.7534 13.5797 40.8646 14.0244 41.0869 14.4286C41.316 14.8261 41.6191 15.1427 41.9964 15.3785C42.3736 15.6143 42.7913 15.7322 43.2494 15.7322Z" fill="#030303"/>
<path d="M28 18.1474V4H33.2143C33.9891 4 34.6863 4.19537 35.3061 4.58611C35.9326 4.97684 36.4312 5.49895 36.8017 6.15242C37.1722 6.79916 37.3575 7.51327 37.3575 8.29474C37.3575 9.08969 37.1688 9.8139 36.7916 10.4674C36.4143 11.1141 35.9091 11.6295 35.2758 12.0135C34.6493 12.3975 33.9621 12.5895 33.2143 12.5895H30.7891V18.1474H28ZM30.7891 9.80043H32.9011C33.211 9.80043 33.4905 9.72632 33.7398 9.57811C33.9891 9.42316 34.1878 9.21769 34.336 8.96169C34.491 8.69895 34.5684 8.40927 34.5684 8.09263C34.5684 7.78274 34.491 7.49979 34.336 7.24379C34.1878 6.98106 33.9891 6.77221 33.7398 6.61727C33.4905 6.46232 33.211 6.38484 32.9011 6.38484H30.7891V9.80043Z" fill="#030303"/>
<path fillRule="evenodd" clipRule="evenodd" d="M17.8095 16.6855V18.2857C17.8095 20.8893 15.6989 23 13.0952 23H4.71429C2.11066 23 0 20.8893 0 18.2857V9.90476C0 7.30113 2.11066 5.19048 4.71429 5.19048H6.31449C6.57505 2.83336 8.57343 1 11 1H17.2857C19.8893 1 22 3.11066 22 5.71429V12C22 14.4266 20.1666 16.4249 17.8095 16.6855ZM6.28571 8.33333H4.71429C3.84641 8.33333 3.14286 9.03689 3.14286 9.90476V18.2857C3.14286 19.1536 3.84641 19.8571 4.71429 19.8571H13.0952C13.9631 19.8571 14.6667 19.1536 14.6667 18.2857V16.7143H11C8.39637 16.7143 6.28571 14.6036 6.28571 12V8.33333ZM9.42857 5.71429C9.42857 4.84641 10.1321 4.14286 11 4.14286H17.2857C18.1536 4.14286 18.8571 4.84641 18.8571 5.71429V12C18.8571 12.8679 18.1536 13.5714 17.2857 13.5714H11C10.1321 13.5714 9.42857 12.8679 9.42857 12V5.71429Z" fill="#3FA477"/>
</svg>
