<svg width="16" height="16" viewBox="0 0 16 16" fill="none" xmlns="http://www.w3.org/2000/svg">
<path d="M8.0026 14.6666C11.6693 14.6666 14.6693 11.6666 14.6693 7.99992C14.6693 4.33325 11.6693 1.33325 8.0026 1.33325C4.33594 1.33325 1.33594 4.33325 1.33594 7.99992C1.33594 11.6666 4.33594 14.6666 8.0026 14.6666Z" fill="#9CDD8A"/>
<path fill-rule="evenodd" clip-rule="evenodd" d="M11.3052 5.64221C11.5653 5.90279 11.5649 6.3249 11.3043 6.58502L7.52432 10.3584C7.26391 10.6183 6.84212 10.6181 6.58193 10.3579L4.69526 8.47127C4.43491 8.21092 4.43491 7.78881 4.69526 7.52846C4.95561 7.26811 5.37772 7.26811 5.63807 7.52846L7.05375 8.94414L10.3623 5.64138C10.6229 5.38126 11.045 5.38163 11.3052 5.64221Z" fill="#030303"/>
</svg>
