<svg width="40" height="40" viewBox="0 0 40 40" fill="none" xmlns="http://www.w3.org/2000/svg">
<path d="M31.9843 2H8.01569C4.69294 2 2 4.69294 2 8.01569V31.9843C2 35.3071 4.69294 38 8.01569 38H31.9843C35.3071 38 38 35.3071 38 31.9843V8.01569C38 4.69294 35.3071 2 31.9843 2ZM31.4559 29.5556C31.4559 30.6053 30.6053 31.4559 29.5556 31.4559H10.4444C9.39473 31.4559 8.54414 30.6053 8.54414 29.5556V10.4444C8.54414 9.39473 9.39473 8.54414 10.4444 8.54414H29.5556C30.6053 8.54414 31.4559 9.39473 31.4559 10.4444V29.5556ZM16.1814 24.8864C15.5769 24.8864 15.0919 24.3977 15.0919 23.7933V16.1633C15.0919 15.5588 15.5769 15.0666 16.1814 15.0666H23.8222C24.4231 15.0666 24.9117 15.5552 24.9117 16.1633V23.7897C24.9117 24.3941 24.4231 24.8828 23.8222 24.8828H16.1814V24.8864Z" fill="#1A1A1A"/>
</svg>
