<svg width="40" height="40" viewBox="0 0 40 40" fill="none" xmlns="http://www.w3.org/2000/svg">
<path d="M19.9995 2C10.0574 2 2 10.0593 2 20C2 29.9399 10.0574 38 19.9995 38C29.9386 38 38 29.9399 38 20C38 10.0593 29.9386 2 19.9995 2Z" fill="#13B5EA"/>
<path d="M15.1954 19.3713C15.5185 18.1095 16.6571 17.2287 17.9654 17.2287C19.2805 17.2287 20.4137 18.1073 20.7383 19.3713H15.1954ZM21.7445 20.1379C21.9299 19.9103 21.9997 19.6125 21.9404 19.2986C21.6992 18.1612 21.0789 17.2502 20.1466 16.6639C19.5062 16.2584 18.7589 16.0442 17.9852 16.0442C17.1317 16.0442 16.3191 16.3 15.6351 16.7841C14.5661 17.5412 13.928 18.7779 13.928 20.0925C13.928 20.4225 13.969 20.7501 14.0497 21.0661C14.4605 22.667 15.8423 23.8777 17.488 24.0789C17.6471 24.0979 17.8065 24.1075 17.9616 24.1075C18.2913 24.1075 18.6121 24.0657 18.9417 23.9802C19.3704 23.8776 19.7787 23.7047 20.1559 23.4666C20.5121 23.2366 20.8403 22.9268 21.1853 22.4948L21.208 22.4715C21.3228 22.3286 21.3763 22.145 21.3545 21.9679C21.3348 21.8093 21.2587 21.6724 21.1401 21.5825C21.0276 21.4962 20.8935 21.4487 20.7628 21.4487C20.6353 21.4487 20.4482 21.4946 20.2789 21.7145L20.2656 21.732C20.2097 21.8063 20.1519 21.883 20.0854 21.9592C19.8573 22.2144 19.5951 22.4245 19.3067 22.5837C18.8939 22.803 18.4478 22.9158 17.9819 22.9192C16.5185 22.9032 15.6223 21.9332 15.2721 21.0322C15.2171 20.87 15.1779 20.7219 15.1526 20.5847C15.1522 20.5707 15.1511 20.5561 15.1502 20.5419L20.8162 20.5409C21.2098 20.5325 21.5395 20.3894 21.7445 20.1379Z" fill="white"/>
<path d="M30.0015 18.9977C29.4326 18.9977 28.9697 19.4575 28.9697 20.0225C28.9697 20.5877 29.4326 21.0476 30.0015 21.0476C30.5693 21.0476 31.0313 20.5877 31.0313 20.0225C31.0313 19.4575 30.5693 18.9977 30.0015 18.9977Z" fill="white"/>
<path d="M26.2427 16.6874C26.2427 16.3655 25.9786 16.1037 25.6546 16.1037L25.489 16.1013C24.9864 16.1013 24.5112 16.2547 24.1108 16.5456C24.0342 16.3101 23.81 16.1445 23.5571 16.1445C23.2312 16.1445 22.9745 16.3989 22.9724 16.7238L22.9743 23.4485C22.9765 23.7688 23.2383 24.0295 23.5581 24.0295C23.8799 24.0295 24.1418 23.7688 24.1418 23.4482V19.3126C24.1418 17.9726 24.2577 17.4125 25.4235 17.2689C25.5203 17.2574 25.6241 17.2568 25.6504 17.2568C25.9936 17.2444 26.2427 17.005 26.2427 16.6874Z" fill="white"/>
<path d="M10.8666 20.0659L13.8903 17.0453C14.0009 16.9372 14.0619 16.792 14.0619 16.6363C14.0619 16.315 13.7981 16.0536 13.4741 16.0536C13.3173 16.0536 13.1693 16.1154 13.0578 16.2275L10.0339 19.2328L6.99796 16.2219C6.88727 16.1134 6.74058 16.0536 6.58476 16.0536C6.26229 16.0536 6 16.315 6 16.6363C6 16.7923 6.06259 16.9403 6.17623 17.0529L9.20208 20.0634L6.18079 23.0778C6.06422 23.1886 6 23.3374 6 23.4965C6 23.8177 6.26229 24.0791 6.58476 24.0791C6.73821 24.0791 6.8849 24.0196 6.99819 23.911L10.0309 20.8936L13.0505 23.8969C13.1663 24.0153 13.3167 24.0806 13.4741 24.0806C13.7981 24.0806 14.0619 23.8185 14.0619 23.4965C14.0619 23.3427 14.001 23.1969 13.8905 23.0858L10.8666 20.0659Z" fill="white"/>
<path d="M30.0006 22.8409C28.4385 22.8409 27.1679 21.5766 27.1679 20.0225C27.1679 18.4667 28.4385 17.2009 30.0006 17.2009C31.5609 17.2009 32.8303 18.4667 32.8303 20.0225C32.8303 21.5766 31.5609 22.8409 30.0006 22.8409ZM30.0013 15.9998C27.7733 15.9998 25.9606 17.8043 25.9606 20.0223C25.9606 22.2398 27.7733 24.0439 30.0013 24.0439C32.2282 24.0439 34.04 22.2398 34.04 20.0223C34.04 17.8043 32.2282 15.9998 30.0013 15.9998Z" fill="white"/>
</svg>
