<svg width="130" height="32" viewBox="0 0 130 32" fill="none" xmlns="http://www.w3.org/2000/svg">
<path d="M96.3058 15.0568C97.7196 15.0568 98.2645 15.9219 98.3406 16.6751C98.3416 16.6865 98.3403 16.6979 98.3367 16.7088C98.3331 16.7196 98.3272 16.7295 98.3195 16.7379C98.3118 16.7464 98.3024 16.7531 98.292 16.7577C98.2815 16.7622 98.2702 16.7646 98.2588 16.7645H94.3764C94.3648 16.7645 94.3533 16.7621 94.3427 16.7573C94.3322 16.7525 94.3227 16.7456 94.3151 16.7369C94.3074 16.7282 94.3017 16.7179 94.2982 16.7068C94.2948 16.6957 94.2938 16.6841 94.2952 16.6725C94.4 15.9366 95.0523 15.0568 96.3058 15.0568ZM98.4338 19.8458C98.4081 19.8457 98.3826 19.8517 98.3596 19.8633C98.3366 19.875 98.3167 19.892 98.3016 19.9129C97.9515 20.4061 97.3816 20.7102 96.5307 20.7102C95.3583 20.7102 94.3406 19.9397 94.2307 18.8479C94.2297 18.8366 94.231 18.8252 94.2346 18.8144C94.2381 18.8036 94.2439 18.7937 94.2516 18.7853C94.2592 18.7769 94.2685 18.7701 94.2789 18.7655C94.2893 18.7609 94.3005 18.7585 94.3119 18.7584H101.288C101.307 18.6971 101.348 18.2295 101.348 17.8021C101.348 14.5489 99.4088 12.617 96.2649 12.617C93.6315 12.617 91.2019 14.6908 91.2019 17.9445C91.2019 21.3407 93.6928 23.3334 96.4898 23.3334C99.0178 23.3334 100.619 21.9189 101.139 20.2093C101.142 20.1991 101.159 20.1352 101.178 20.0419C101.183 20.0182 101.183 19.9937 101.177 19.9701C101.171 19.9466 101.161 19.9246 101.145 19.9058C101.13 19.887 101.111 19.8719 101.089 19.8615C101.067 19.8511 101.043 19.8458 101.019 19.8458H98.4338ZM104.602 17.8928L101.295 13.1779C101.278 13.1535 101.268 13.1248 101.266 13.095C101.264 13.0652 101.27 13.0355 101.284 13.0091C101.298 12.9827 101.319 12.9605 101.344 12.9451C101.37 12.9297 101.399 12.9216 101.429 12.9218H104.681C104.736 12.9218 104.787 12.9492 104.818 12.9952L106.517 15.5826C106.549 15.6318 106.622 15.6312 106.654 15.5814L108.315 12.9971C108.329 12.974 108.35 12.955 108.374 12.9418C108.398 12.9287 108.425 12.9218 108.452 12.9218H111.517C111.65 12.9218 111.727 13.0706 111.651 13.1786L108.388 17.7695C108.369 17.7968 108.358 17.8295 108.358 17.863C108.358 17.8965 108.368 17.9292 108.387 17.9567C109.456 19.4772 110.676 21.2341 111.772 22.7718C111.849 22.8798 111.772 23.028 111.639 23.028H108.41C108.383 23.0281 108.356 23.0215 108.332 23.0088C108.308 22.9961 108.288 22.9777 108.273 22.9552L106.511 20.2834C106.504 20.2722 106.493 20.263 106.482 20.2567C106.47 20.2503 106.456 20.247 106.443 20.247C106.43 20.247 106.416 20.2503 106.404 20.2567C106.393 20.263 106.382 20.2722 106.375 20.2834C105.847 21.068 105.157 22.1604 104.634 22.9552C104.619 22.9777 104.599 22.9962 104.575 23.0089C104.551 23.0216 104.524 23.0282 104.497 23.028H101.487C101.457 23.0282 101.428 23.0202 101.403 23.0049C101.377 22.9896 101.356 22.9676 101.342 22.9413C101.329 22.915 101.322 22.8854 101.324 22.8557C101.326 22.8261 101.336 22.7975 101.353 22.7731L104.603 18.0781C104.622 18.0509 104.632 18.0185 104.632 17.9854C104.632 17.9523 104.622 17.92 104.603 17.8928H104.602ZM87.078 22.8657V8.46884C87.078 8.37876 87.1514 8.30593 87.2415 8.30593H90.018C90.1081 8.30593 90.1816 8.37876 90.1816 8.46884V22.8657C90.1816 22.9552 90.1081 23.028 90.018 23.028H87.2415C87.2201 23.0281 87.1989 23.024 87.1791 23.0158C87.1593 23.0077 87.1413 22.9958 87.1261 22.9807C87.1109 22.9657 87.0989 22.9478 87.0906 22.928C87.0823 22.9083 87.078 22.8871 87.078 22.8657ZM82.505 22.8657V8.46884C82.505 8.37876 82.5784 8.30593 82.6685 8.30593H85.445C85.5351 8.30593 85.6079 8.37876 85.6079 8.46884V22.8657C85.6079 22.9552 85.5351 23.028 85.445 23.028H82.6685C82.6471 23.0281 82.6259 23.024 82.6061 23.0158C82.5863 23.0077 82.5683 22.9958 82.5531 22.9807C82.5379 22.9657 82.5259 22.9478 82.5176 22.928C82.5093 22.9083 82.505 22.8871 82.505 22.8657ZM75.6384 20.6489C76.8842 20.6489 77.9454 19.6733 77.9454 17.965C77.9454 16.2164 76.904 15.3009 75.6384 15.3009C74.3115 15.3009 73.311 16.2164 73.311 17.965C73.311 19.6324 74.3524 20.6495 75.6384 20.6495V20.6489ZM77.9658 21.7266C77.5167 22.7028 76.4964 23.3129 75.2302 23.3129C72.2492 23.3129 70.1876 21.0558 70.1876 17.9445C70.1876 14.9355 72.1272 12.6164 75.128 12.6164C76.9449 12.6164 77.7409 13.613 77.9454 14.0807V13.084C77.9454 12.9946 78.0182 12.9218 78.1089 12.9218H80.7832C80.8727 12.9218 80.9461 12.9946 80.9461 13.0847V22.8657C80.9461 22.9552 80.8733 23.028 80.7832 23.028H78.1108C78.0893 23.028 78.0679 23.0237 78.048 23.0154C78.0281 23.0071 78.0101 22.9949 77.9949 22.9796C77.9798 22.9643 77.9678 22.9461 77.9598 22.9261C77.9517 22.9061 77.9477 22.8847 77.9479 22.8632C77.953 22.4958 77.9658 21.6468 77.9658 21.7266ZM63.5657 13.0336L65.4255 18.6671C65.451 18.7438 65.5596 18.7412 65.5814 18.6639L67.1702 13.0406C67.1798 13.0063 67.2004 12.9762 67.2288 12.9547C67.2572 12.9333 67.2918 12.9217 67.3274 12.9218H70.0234C70.1339 12.9218 70.2125 13.0278 70.1799 13.1326L67.137 22.9136C67.1267 22.947 67.1061 22.9761 67.078 22.9968C67.0499 23.0175 67.016 23.0287 66.9811 23.0286H64.1362C64.1021 23.0286 64.0688 23.0178 64.0411 22.9979C64.0134 22.9779 63.9926 22.9498 63.9816 22.9175L61.8925 16.732C61.867 16.6578 61.7616 16.6585 61.7373 16.732L59.6865 22.9162C59.6758 22.9487 59.6551 22.977 59.6273 22.9971C59.5995 23.0172 59.5662 23.028 59.5319 23.028H56.6257C56.591 23.028 56.5572 23.017 56.5292 22.9966C56.5012 22.9761 56.4804 22.9473 56.4698 22.9143L53.3873 13.1332C53.3797 13.1088 53.3779 13.0829 53.3821 13.0577C53.3864 13.0325 53.3965 13.0086 53.4117 12.988C53.4268 12.9674 53.4467 12.9507 53.4695 12.9392C53.4924 12.9277 53.5176 12.9217 53.5432 12.9218H56.4232C56.496 12.9218 56.5605 12.9703 56.5803 13.0406L58.1692 18.646C58.1909 18.7227 58.2995 18.7252 58.3251 18.6492L60.2046 13.0336C60.2155 13.001 60.2363 12.9727 60.2642 12.9526C60.2921 12.9325 60.3256 12.9217 60.3599 12.9218H63.4105C63.4808 12.9218 63.544 12.9665 63.5657 13.0336ZM52.5453 15.7724C52.5452 15.7961 52.54 15.8196 52.53 15.8411C52.5199 15.8627 52.5053 15.8818 52.4871 15.897C52.4689 15.9123 52.4476 15.9234 52.4246 15.9296C52.4017 15.9358 52.3776 15.9368 52.3542 15.9327C52.0936 15.8887 51.8296 15.8677 51.5652 15.8701C50.3194 15.8701 49.197 16.6023 49.197 18.6153V22.8657C49.197 22.9552 49.1241 23.028 49.034 23.028H46.2575C46.2361 23.0281 46.2149 23.024 46.1951 23.0158C46.1753 23.0077 46.1573 22.9958 46.1421 22.9807C46.127 22.9657 46.1149 22.9478 46.1066 22.928C46.0984 22.9083 46.0941 22.8871 46.094 22.8657V13.0847C46.094 12.9952 46.1668 12.9218 46.2575 12.9218H48.9318C49.0219 12.9218 49.0947 12.9946 49.0947 13.0847V14.2845C49.6256 13.1454 50.9123 12.8202 51.7288 12.8202C51.9767 12.8202 52.2245 12.847 52.4181 12.8892C52.4929 12.9058 52.5453 12.9722 52.5453 13.0482V15.7724ZM41.4596 22.8657V13.0847C41.4596 12.9952 41.5331 12.9218 41.6232 12.9218H44.3997C44.4898 12.9218 44.5633 12.9946 44.5633 13.0847V22.8657C44.5633 22.9552 44.4898 23.028 44.3997 23.028H41.6232C41.6018 23.0281 41.5806 23.024 41.5608 23.0158C41.541 23.0077 41.523 22.9958 41.5078 22.9807C41.4926 22.9657 41.4805 22.9478 41.4723 22.928C41.464 22.9083 41.4597 22.8871 41.4596 22.8657ZM42.991 8.021C44.0119 8.021 44.8284 8.83427 44.8284 9.83091C44.8284 10.8275 44.0119 11.6408 42.991 11.6408C42.011 11.6408 41.1945 10.8275 41.1945 9.83091C41.1945 8.83427 42.011 8.021 42.991 8.021ZM31.5719 17.1715H34.8531C34.9093 17.1715 34.9489 17.1166 34.9298 17.0635L33.3096 12.4087C33.3041 12.3926 33.2937 12.3786 33.2799 12.3687C33.2661 12.3588 33.2495 12.3534 33.2325 12.3533C33.2155 12.3532 33.1989 12.3585 33.185 12.3683C33.1711 12.3781 33.1606 12.392 33.155 12.4081L31.4959 17.0635C31.4767 17.1159 31.5163 17.1721 31.5725 17.1721L31.5719 17.1715ZM35.8734 20.1001H30.5101C30.4764 20.1001 30.4436 20.1106 30.4162 20.13C30.3887 20.1495 30.368 20.177 30.3568 20.2087L29.3921 22.92C29.3808 22.9519 29.36 22.9794 29.3324 22.9988C29.3048 23.0183 29.2719 23.0287 29.2381 23.0286H26.2009C26.1745 23.0288 26.1484 23.0225 26.125 23.0103C26.1015 22.9982 26.0814 22.9805 26.0663 22.9588C26.0512 22.9371 26.0416 22.912 26.0384 22.8858C26.0351 22.8596 26.0383 22.833 26.0476 22.8082L31.3758 8.71608C31.3875 8.68506 31.4083 8.65835 31.4356 8.63952C31.4629 8.62068 31.4953 8.61062 31.5284 8.61067H35.0384C35.1061 8.61067 35.1674 8.65284 35.1911 8.71672L40.4592 22.8089C40.4682 22.8335 40.4712 22.86 40.4678 22.8861C40.4644 22.9121 40.4548 22.937 40.4397 22.9585C40.4247 22.98 40.4046 22.9976 40.3813 23.0097C40.358 23.0218 40.3321 23.0281 40.3058 23.028H37.1454C37.1116 23.028 37.0787 23.0175 37.0512 22.9981C37.0236 22.9787 37.0027 22.9512 36.9914 22.9194L36.0267 20.2087C36.0154 20.177 35.9946 20.1496 35.9672 20.1302C35.9398 20.1107 35.907 20.1002 35.8734 20.1001Z" fill="#030303"/>
<path fill-rule="evenodd" clip-rule="evenodd" d="M22.114 14.0193C22.5114 14.4061 22.787 14.9006 22.907 15.4421C23.027 15.9835 22.986 16.5482 22.7892 17.0667L21.2898 21.1401C20.8963 22.2096 19.9993 23.0369 18.8909 23.2528C18.3364 23.3638 17.7622 23.322 17.2297 23.1318C16.6972 22.9416 16.2265 22.6102 15.8678 22.1732L6.87633 11.4006C6.85398 11.3741 6.82505 11.3539 6.79245 11.3421C6.75985 11.3302 6.72472 11.3272 6.69057 11.3332C6.65642 11.3392 6.62444 11.3541 6.59785 11.3763C6.57125 11.3986 6.55096 11.4274 6.53901 11.46L3.61363 19.3724C3.55294 19.5359 3.71394 19.6943 3.87365 19.6292L7.46345 18.163C7.66583 18.0809 7.88298 18.0416 8.10129 18.0474C8.31959 18.0533 8.53433 18.1041 8.73204 18.1969C8.92975 18.2896 9.10617 18.4222 9.25022 18.5863C9.39427 18.7505 9.50286 18.9426 9.56916 19.1507C9.83429 19.9639 9.38836 20.8424 8.60319 21.1631L3.9139 23.0778C3.04568 23.4324 2.04841 23.3697 1.26643 22.8478C0.733541 22.4917 0.336249 21.9663 0.13872 21.3566C-0.0588079 20.7468 -0.045039 20.0883 0.177804 19.4873L3.63408 10.142C4.04359 9.0342 4.97634 8.25222 6.12949 8.05034C6.69106 7.9497 7.2693 8.00054 7.8047 8.1976C8.34009 8.39467 8.8133 8.73086 9.17562 9.17155L14.3364 15.3558L19.0832 13.4168C20.1379 12.9862 21.2994 13.2169 22.114 14.0193ZM19.3764 17.1255C19.4365 16.9619 19.2755 16.8035 19.1158 16.8693L16.4932 17.94L18.0661 19.8253C18.0884 19.8521 18.1174 19.8726 18.1502 19.8846C18.1829 19.8966 18.2183 19.8998 18.2526 19.8938C18.287 19.8877 18.3192 19.8727 18.3459 19.8503C18.3726 19.8278 18.3929 19.7987 18.4047 19.7659L19.3758 17.1255H19.3764Z" fill="url(#paint0_linear_4772_3283)"/>
<defs>
<linearGradient id="paint0_linear_4772_3283" x1="0" y1="8" x2="14.1346" y2="29.2056" gradientUnits="userSpaceOnUse">
<stop stop-color="#FF4244"/>
<stop offset="1" stop-color="#FF8E3C"/>
</linearGradient>
</defs>
</svg>
