<svg width="130" height="32" viewBox="0 0 130 32" fill="none" xmlns="http://www.w3.org/2000/svg">
<g clip-path="url(#clip0_4773_42401)">
<path d="M49.7276 19.3007V14.5626C49.7276 14.4389 49.6446 14.3566 49.5203 14.3566H47.9446V12.5025H49.5203C49.6446 12.5025 49.7276 12.42 49.7276 12.2965V9.33005H51.9665V12.2965C51.9665 12.42 52.0495 12.5025 52.1739 12.5025H54.3715V14.3566H52.1739C52.0495 14.3566 51.9665 14.4389 51.9665 14.5626V18.7651C51.9665 20.7428 52.6715 20.9076 53.5837 20.9076C53.9154 20.9076 54.4129 20.8663 54.7032 20.8251V22.7616C54.33 22.8028 53.7081 22.8852 53.0032 22.8852C52.1324 22.844 49.7276 22.844 49.7276 19.3007ZM110.596 20.4543L112.42 19.5067C112.835 20.4543 113.623 21.0723 114.535 21.0723C115.24 21.0723 116.028 20.7839 116.028 19.9187C116.028 19.3419 115.654 19.0122 114.784 18.7239L113.54 18.3119C111.798 17.7762 110.928 16.7875 110.928 15.3866C110.928 13.6149 112.42 12.2965 114.452 12.2965C116.069 12.2965 117.437 13.1617 118.101 14.5214L116.276 15.5101C115.862 14.6449 115.198 14.1506 114.41 14.1506C113.623 14.1506 113.084 14.5626 113.084 15.1806C113.084 15.7161 113.498 16.1282 114.328 16.3754L115.571 16.7875C117.396 17.3642 118.266 18.353 118.266 19.7127C118.266 21.8552 116.401 22.9677 114.535 22.9677C112.669 22.9264 111.176 21.9788 110.596 20.4543ZM103.713 18.6002C103.671 18.6415 103.63 18.6827 103.63 18.7239V22.6792H101.349V8.05273H103.63V16.0458C103.63 16.1282 103.671 16.2106 103.754 16.2106C103.837 16.2518 103.92 16.2106 103.962 16.1694L107.652 12.4613H110.43L106.118 16.7875C106.035 16.8698 106.035 16.9522 106.118 17.0346L110.803 22.6792H108.025L104.418 18.2295C104.376 18.1882 104.335 18.147 104.293 18.147C104.252 18.147 104.21 18.147 104.169 18.1882L103.713 18.6002ZM100.23 13.8621L98.7787 15.2218C97.9495 14.6038 97.1202 14.3154 96.208 14.3154C94.3007 14.3154 92.891 15.7161 92.891 17.6115C92.891 19.5067 94.3007 20.9076 96.208 20.9076C97.0373 20.9076 97.908 20.6191 98.8202 20.0011L100.106 21.3608C98.2398 22.7204 97.2446 22.9677 95.9593 22.9677C94.4251 22.9677 93.0568 22.432 92.0616 21.4431C91.108 20.4956 90.569 19.0947 90.569 17.6115C90.569 14.5214 92.8495 12.2553 96.0007 12.2553C97.0373 12.2553 98.5714 12.4201 100.23 13.8621ZM89.5324 9.45361C89.5324 10.1953 88.9105 10.8133 88.1641 10.8133C87.4177 10.8133 86.7958 10.1953 86.7958 9.45361C86.7958 8.71195 87.4177 8.09395 88.1641 8.09395C88.9105 8.09395 89.5324 8.71195 89.5324 9.45361ZM89.3251 22.6792H87.0446V12.5025H89.3251V22.6792ZM82.069 18.2295V22.7204H79.7885V12.5437H82.0275V13.7797C82.0275 13.8621 82.069 13.9446 82.1519 13.9857C82.2349 14.0269 82.3177 13.9857 82.3593 13.9034C82.9397 12.9557 84.0177 12.3377 85.1788 12.3377C85.3446 12.3377 85.469 12.3377 85.5519 12.3789V14.6861C85.4275 14.6449 85.2202 14.6449 85.0129 14.6449C83.1885 14.6038 82.069 16.0046 82.069 18.2295ZM69.8373 17.6115C69.8373 15.7574 71.2471 14.3154 73.0714 14.3154C74.8958 14.3154 76.3056 15.7574 76.3056 17.6115C76.3056 19.4655 74.8958 20.9076 73.0714 20.9076C71.2471 20.9076 69.8373 19.4655 69.8373 17.6115ZM70.0446 21.4843C70.0861 21.4843 70.0861 21.4843 70.1275 21.4843C70.169 21.4843 70.2519 21.5256 70.2934 21.5668C71.0812 22.4732 72.2422 22.9677 73.569 22.9677C76.3885 22.9677 78.5446 20.6191 78.5446 17.6115C78.5446 16.1282 78.0471 14.8098 77.0934 13.7797C76.1812 12.7909 74.8958 12.2553 73.5275 12.2553C72.2422 12.2553 71.0397 12.7909 70.2519 13.7385C70.2105 13.7797 70.1275 13.8209 70.0446 13.7797C69.9617 13.7385 69.9202 13.6974 69.9202 13.6149V8.09395H67.6397V22.7204H69.9202V21.6903C69.9202 21.5668 69.9617 21.5256 70.0446 21.4843ZM60.5909 20.9076C58.8081 20.9076 57.3568 19.4655 57.3568 17.6115C57.3568 15.7574 58.7666 14.3154 60.5909 14.3154C62.4153 14.3154 63.8251 15.7574 63.8251 17.6115C63.8251 19.4655 62.3739 20.9076 60.5909 20.9076ZM65.9397 22.6792V12.5025H63.7008V13.5325C63.7008 13.6149 63.6592 13.6974 63.5764 13.6974C63.4934 13.7385 63.4105 13.6974 63.369 13.6561C62.6227 12.7497 61.4617 12.2553 60.0934 12.2553C57.2739 12.2553 55.1178 14.6038 55.1178 17.6115C55.1178 20.6191 57.3153 22.9677 60.0934 22.9677C61.3787 22.9677 62.5812 22.432 63.369 21.4843C63.4105 21.402 63.4934 21.402 63.5764 21.4431C63.6592 21.4843 63.7008 21.5256 63.7008 21.608V22.7204H65.9397V22.6792ZM41.3934 20.9076C39.6105 20.9076 38.1593 19.4655 38.1593 17.6115C38.1593 15.7574 39.569 14.3154 41.3934 14.3154C43.1763 14.3154 44.6276 15.7574 44.6276 17.6115C44.6276 19.4655 43.1763 20.9076 41.3934 20.9076ZM46.7422 22.6792V12.5025H44.5032V13.5325C44.5032 13.6149 44.4617 13.6974 44.3788 13.6974C44.2959 13.7385 44.2129 13.6974 44.1715 13.6561C43.4251 12.7497 42.2641 12.2553 40.8959 12.2553C38.0763 12.2553 35.9202 14.6038 35.9202 17.6115C35.9202 20.6191 38.1179 22.9677 40.8959 22.9677C42.1812 22.9677 43.3837 22.432 44.1715 21.4843C44.2129 21.402 44.2959 21.402 44.3788 21.4431C44.4617 21.4843 44.5032 21.5256 44.5032 21.608V22.7204H46.7422V22.6792ZM29.2861 20.9076C27.4617 20.9076 26.052 19.4655 26.052 17.6115C26.052 15.7574 27.4617 14.3154 29.2861 14.3154C31.069 14.3154 32.5203 15.7574 32.5203 17.6115C32.5203 19.4655 31.069 20.9076 29.2861 20.9076ZM34.6349 22.6792V8.09395H32.3544V13.5737C32.3544 13.6561 32.3129 13.7385 32.23 13.7385C32.1471 13.7797 32.0642 13.7385 32.0227 13.6974C31.2349 12.7909 30.0739 12.2965 28.7471 12.2965C25.9276 12.2965 23.7715 14.6449 23.7715 17.6527C23.7715 19.1359 24.269 20.4543 25.2227 21.4843C26.1349 22.4732 27.4203 23.0088 28.7885 23.0088C30.0739 23.0088 31.2764 22.4732 32.0642 21.5256C32.1056 21.4843 32.1885 21.4431 32.2715 21.4843C32.3544 21.5256 32.3959 21.5668 32.3959 21.6492V22.7204H34.6349V22.6792Z" fill="white"/>
<path d="M17.9995 13.8416L9.48546 18.6705L0.42856 13.5255L0 13.7554V17.4921L9.48546 22.8959L17.9995 18.0669V20.0502L9.48546 24.8792L0.42856 19.7341L0 19.964V20.5964L9.48546 26.0002L18.9995 20.5964V16.8597L18.571 16.6297L9.48546 21.7749L0.999948 16.9459V14.9914L9.48546 19.7916L18.9995 14.3877V10.7086L18.5138 10.4499L9.48546 15.5662L1.45706 10.996L9.48546 6.4545L16.1138 10.1912L16.7139 9.87499V9.41509L9.48546 5.3335L0 10.7086V11.2834L9.48546 16.6872L17.9995 11.8583V13.8416Z" fill="#FF3621"/>
</g>
<defs>
<clipPath id="clip0_4773_42401">
<rect width="118.667" height="32" fill="white"/>
</clipPath>
</defs>
</svg>
