<svg width="130" height="32" viewBox="0 0 130 32" fill="none" xmlns="http://www.w3.org/2000/svg">
<g clip-path="url(#clip0_4772_10518)">
<path d="M62.0674 9.70685C63.0618 9.70685 63.8329 8.91939 63.8329 7.93002C63.8329 6.96084 63.0618 6.17338 62.0674 6.17338C61.0933 6.17338 60.2816 6.96084 60.2816 7.93002C60.2613 8.91939 61.0933 9.70685 62.0674 9.70685Z" fill="#030303"/>
<path d="M46.8477 10.9385H49.5061V12.5538C50.1757 11.5846 51.6571 10.6962 53.4023 10.6962C56.7101 10.6962 59.2264 13.5028 59.2264 16.9555C59.2264 20.388 56.7101 23.2147 53.4023 23.2147C51.6571 23.2147 50.196 22.3264 49.5061 21.3572V28.0001H46.8477V10.9385ZM52.9153 13.0989C50.7642 13.0989 49.2829 14.7748 49.2829 16.9555C49.2829 19.1159 50.7642 20.812 52.9153 20.812C55.046 20.812 56.5275 19.1362 56.5275 16.9555C56.5275 14.795 55.046 13.0989 52.9153 13.0989Z" fill="#030303"/>
<path d="M65.3549 10.9385H68.0133V12.574C68.7438 11.3625 70.1236 10.6962 71.6863 10.6962C74.4865 10.6962 76.3132 12.6749 76.3132 15.7238V22.9725H73.6546V16.168C73.6546 14.27 72.6804 13.1192 71.1383 13.1192C69.3728 13.1192 68.0133 14.4922 68.0133 17.0564V22.9725H65.3549V10.9385Z" fill="#030303"/>
<path d="M26.5951 10.6962C25.0326 10.6962 23.6526 11.3625 22.9221 12.574V6.17334H20.2637V22.9725H22.9221V17.0564C22.9221 14.4921 24.2817 13.1191 26.0472 13.1191C27.5895 13.1191 28.5635 14.2701 28.5635 16.168V22.9725H31.2219V15.7238C31.2017 12.6749 29.3955 10.6962 26.5951 10.6962Z" fill="#030303"/>
<path d="M63.3662 10.9385H60.7078V22.9725H63.3662V10.9385Z" fill="#030303"/>
<path d="M39.0349 23.2148C35.4634 23.2148 32.7035 20.4486 32.7035 16.9555C32.7035 13.4624 35.4634 10.6962 39.0349 10.6962C42.6065 10.6962 45.3663 13.4624 45.3663 16.9555C45.3663 20.4486 42.6065 23.2148 39.0349 23.2148ZM39.0349 20.7515C41.1657 20.7515 42.6673 19.0958 42.6673 16.9555C42.6673 14.8152 41.1657 13.1595 39.0349 13.1595C36.8839 13.1595 35.3822 14.8152 35.3822 16.9555C35.3822 19.0958 36.8839 20.7515 39.0349 20.7515Z" fill="#030303"/>
<path d="M10.5825 9.39113C10.5623 10.1957 9.99524 11.3421 9.04347 11.3421C8.45614 11.3421 7.97014 10.8594 7.97014 10.2761V10.256C7.94986 9.31067 7.52464 8.48601 6.85632 7.90271C6.35005 7.48033 5.72226 7.19874 5.03372 7.11828C5.621 6.51488 6.4513 6.15283 7.3626 6.15283C8.51691 6.15283 9.56995 6.81658 10.1775 7.78204C10.461 8.26477 10.6028 8.84806 10.5825 9.39113Z" fill="#175FFF"/>
<path d="M6.81592 9.47156C7.32217 10.1152 7.62598 11.3421 6.89695 11.9455C6.43115 12.3277 5.76287 12.2673 5.37809 11.8249C4.75031 11.1209 3.87951 10.7588 3.00871 10.7387C2.34042 10.7186 1.67213 10.9197 1.1051 11.3019C1.16586 10.4772 1.55063 9.65258 2.25941 9.06929C3.17072 8.32508 4.44654 8.10383 5.5401 8.54632C6.04638 8.72735 6.49191 9.04917 6.81592 9.47156Z" fill="#175FFF"/>
<path d="M3.98071 11.9255C4.77051 12.0864 5.82357 12.8508 5.66156 13.776C5.5603 14.3593 4.99327 14.7415 4.40598 14.6409H4.38574C3.45418 14.5001 2.54288 14.7817 1.87459 15.3247C1.36831 15.727 0.963292 16.3103 0.781029 16.974C0.295002 16.2902 0.0722392 15.4253 0.213998 14.5202C0.43676 13.3737 1.26706 12.4083 2.40112 12.0261C2.9074 11.8652 3.47443 11.825 3.98071 11.9255Z" fill="#175FFF"/>
<path d="M3.39342 15.6263C4.10221 15.2442 5.39828 15.1637 5.86406 15.9683C6.16783 16.4711 5.98556 17.1349 5.47929 17.4366C4.66924 17.9193 4.16296 18.7037 3.9807 19.5686C3.85919 20.2122 3.91995 20.8961 4.22371 21.5197C3.41367 21.3185 2.66437 20.7956 2.21885 20.0111C1.63157 18.9853 1.65182 17.7182 2.25935 16.7125C2.54287 16.2499 2.92764 15.8677 3.39342 15.6263Z" fill="#175FFF"/>
<path d="M5.33738 18.8245C5.64115 18.0802 6.5727 17.1952 7.44351 17.517C8.01056 17.7182 8.29408 18.3417 8.09154 18.8848C7.78774 19.7698 7.90929 20.695 8.33457 21.4594C8.65859 22.0426 9.14459 22.5053 9.77241 22.8069C9.00283 23.169 8.11176 23.2495 7.26125 22.9277C6.14743 22.5253 5.33738 21.5398 5.15512 20.3732C5.09437 19.8503 5.15512 19.3071 5.33738 18.8245Z" fill="#175FFF"/>
<path d="M8.9017 20.0312C8.63846 19.2669 8.78022 17.9997 9.67122 17.6778C10.2383 17.4767 10.8458 17.7583 11.0484 18.3215C11.3926 19.1864 12.0811 19.8301 12.9114 20.1519C13.519 20.3932 14.2278 20.4334 14.896 20.2725C14.5518 21.0368 13.9037 21.6604 13.0532 21.9822C11.9394 22.3845 10.6636 22.1431 9.79277 21.3586C9.38777 20.9765 9.06375 20.534 8.9017 20.0312Z" fill="#175FFF"/>
<path d="M12.4253 18.6837C11.7368 18.2613 11.0078 17.1953 11.4938 16.3907C11.7976 15.8879 12.4456 15.7069 12.9721 15.9885C13.8024 16.431 14.734 16.4913 15.5845 16.2097C16.2123 15.9885 16.7793 15.5862 17.1844 15.023C17.4071 15.8275 17.3261 16.7126 16.8603 17.497C16.2731 18.5228 15.139 19.1463 13.9644 19.1061C13.3974 19.1061 12.8506 18.9653 12.4253 18.6837Z" fill="#175FFF"/>
<path d="M14.248 15.405C13.4379 15.5258 12.2026 15.1636 12.0406 14.2385C11.9191 13.6753 12.3241 13.1121 12.9114 13.0115H12.9316C13.8632 12.8305 14.6125 12.2673 15.058 11.5231C15.4023 10.9599 15.5643 10.2962 15.5036 9.61232C16.1921 10.0749 16.7186 10.8191 16.8603 11.7041C17.0629 12.8506 16.5971 14.0575 15.6858 14.7815C15.2605 15.1034 14.7543 15.3447 14.248 15.405Z" fill="#175FFF"/>
<path d="M13.519 11.7445C12.9722 12.3479 11.7976 12.8708 11.0686 12.2674C10.6028 11.8853 10.542 11.2215 10.9268 10.7589C11.5141 10.0348 11.7368 9.10959 11.5951 8.2447C11.4939 7.60107 11.19 6.97755 10.7041 6.4747C11.5343 6.39425 12.4051 6.63561 13.1139 7.21891C14.0252 7.96311 14.4505 9.19004 14.2075 10.3365C14.1062 10.8595 13.8632 11.3623 13.519 11.7445Z" fill="#175FFF"/>
</g>
<defs>
<clipPath id="clip0_4772_10518">
<rect width="76.6667" height="32" fill="white"/>
</clipPath>
</defs>
</svg>
