<svg width="130" height="32" viewBox="0 0 130 32" fill="none" xmlns="http://www.w3.org/2000/svg">
<g clip-path="url(#clip0_4772_11271)">
<path d="M111.201 13.5574C111.859 14.256 112.191 15.2033 112.191 16.4035V22.7174H109.748V17.1194C109.748 16.4121 109.548 15.8549 109.148 15.4477C108.749 15.0405 108.209 14.8347 107.525 14.8347C106.718 14.8476 106.076 15.1262 105.605 15.6663C105.133 16.2064 104.895 16.9007 104.895 17.7452V22.7174H102.469V8.68803H104.895V14.5304C105.579 13.2059 106.782 12.5329 108.498 12.5072C109.637 12.5072 110.542 12.8544 111.201 13.5574ZM97.0723 14.6804C96.2649 14.6804 95.6063 14.959 95.1049 15.512C94.6035 16.0692 94.3485 16.785 94.3485 17.668C94.3485 18.5767 94.6035 19.3054 95.1049 19.8626C95.6105 20.4156 96.2649 20.6942 97.0765 20.6942C98.2705 20.6942 99.1671 20.2956 99.7662 19.5026L101.279 20.7714C100.833 21.4272 100.221 21.9501 99.507 22.2844C98.7719 22.6359 97.9221 22.8117 96.949 22.8117C95.9675 22.8117 95.0921 22.5973 94.3273 22.1687C93.5752 21.7529 92.9548 21.1228 92.5469 20.3641C92.122 19.5883 91.9095 18.6967 91.9095 17.6894C91.9095 16.6693 92.1262 15.7649 92.5554 14.9847C92.9676 14.2175 93.5922 13.5917 94.3485 13.1716C95.1134 12.743 95.993 12.5286 96.9915 12.5286C97.9008 12.5286 98.7124 12.6872 99.4263 13.0087C100.14 13.3302 100.722 13.7888 101.173 14.3804L99.6982 15.7991C99.0141 15.0533 98.143 14.6804 97.0723 14.6804ZM90.3586 12.6015V22.7174H87.9323V21.11C87.5881 21.6501 87.1079 22.0916 86.5428 22.3873C85.9777 22.6831 85.3275 22.8331 84.5924 22.8331C83.6449 22.8331 82.8163 22.6145 82.0982 22.1816C81.3843 21.7486 80.8234 21.1357 80.4283 20.347C80.0331 19.5583 79.8334 18.6539 79.8334 17.6337C79.8334 16.6264 80.0331 15.7348 80.4325 14.959C80.8277 14.1832 81.3886 13.5831 82.1024 13.1544C82.8163 12.7258 83.6406 12.5115 84.5754 12.5115C85.3106 12.5115 85.9649 12.6615 86.5343 12.9573C87.1037 13.253 87.5881 13.6902 87.9323 14.2346V12.6101L90.3586 12.6015ZM87.0527 20.0212C87.5626 19.524 87.8558 18.8639 87.9323 18.0452V17.3294C87.8558 16.5064 87.5669 15.8506 87.057 15.3534C86.5471 14.8561 85.9012 14.6075 85.1151 14.6075C84.2822 14.6075 83.6024 14.8947 83.0797 15.4691C82.5571 16.0435 82.2894 16.785 82.2766 17.6894C82.2894 18.5982 82.5571 19.3354 83.0797 19.9098C83.6024 20.4842 84.2822 20.7714 85.1151 20.7714C85.8969 20.7714 86.5428 20.5227 87.0527 20.0212ZM77.3901 13.9046C78.1932 14.8261 78.5926 16.1163 78.5926 17.7795C78.5926 18.1052 78.5841 18.3538 78.5756 18.5167H71.2033C71.3648 19.2368 71.6962 19.7983 72.2019 20.2098C72.7033 20.6213 73.3236 20.8228 74.0588 20.8228C74.5602 20.8228 75.0616 20.7242 75.5247 20.527C75.9879 20.3384 76.4043 20.0512 76.7485 19.6869L78.053 21.0671C77.5473 21.6286 76.9269 22.0658 76.2301 22.353C75.5162 22.6574 74.7216 22.8074 73.8505 22.8074C72.8307 22.8074 71.9299 22.5931 71.1523 22.1644C70.3917 21.7529 69.7628 21.1228 69.3507 20.3599C68.9258 19.584 68.7175 18.6925 68.7175 17.6852C68.7175 16.6779 68.93 15.782 69.3634 15.0019C69.7798 14.2346 70.4045 13.6002 71.1651 13.1759C71.9384 12.7387 72.8137 12.5243 73.7953 12.5243C75.3887 12.5243 76.587 12.9873 77.3901 13.9046ZM76.3745 16.875C76.3491 16.1292 76.1069 15.5377 75.6479 15.0962C75.189 14.6547 74.5771 14.4318 73.8166 14.4318C73.1069 14.4318 72.5121 14.6504 72.0319 15.0833C71.5517 15.5162 71.2586 16.1121 71.1438 16.8707H76.3745V16.875ZM66.0788 13.0473C66.6567 12.7001 67.3323 12.5201 68.1057 12.5072V14.8904C67.0731 14.8261 66.2488 15.0705 65.6327 15.6191C65.0165 16.1678 64.7063 16.9093 64.7063 17.8395V22.7174H62.2801V12.6015H64.7063V14.5475C65.0463 13.8917 65.5009 13.3902 66.0788 13.0473ZM60.4614 22.0916C59.6668 22.5845 58.8297 22.8288 57.9587 22.8288C57.1003 22.8288 56.395 22.5716 55.8511 22.0616C55.3029 21.5515 55.031 20.7971 55.031 19.8026V10.2354L57.4403 9.94394V13.013H60.2957V14.809H57.4403V19.3697C57.4403 19.8369 57.5252 20.167 57.6995 20.3599C57.8737 20.557 58.1329 20.6513 58.4813 20.6513C58.8552 20.6513 59.3269 20.5142 59.9005 20.2356L60.4614 22.0916ZM50.5354 12.6015H52.9446V18.2724C52.9446 21.5815 50.6628 22.8117 48.347 22.8117C46.0312 22.8117 43.7537 21.5815 43.7537 18.2724V12.6015H46.163V18.3581C46.163 19.6269 47.0978 20.6556 48.3513 20.6556C49.6048 20.6556 50.5396 19.6269 50.5396 18.3581L50.5354 12.6015ZM38.7609 10.2011C39.802 10.7712 40.6688 11.6156 41.2722 12.6401C41.884 13.6731 42.1857 14.8218 42.1857 16.082C42.1857 17.3422 41.8798 18.491 41.2722 19.5326C40.6688 20.5656 39.802 21.4186 38.7609 22.0015C37.6944 22.6059 36.5174 22.9103 35.2214 22.9103C33.9254 22.9103 32.7483 22.6059 31.686 22.0015C30.645 21.4186 29.7782 20.5656 29.1748 19.5326C28.5672 18.491 28.2612 17.3422 28.2612 16.082C28.2612 14.8218 28.5672 13.6731 29.1748 12.6401C29.7782 11.6113 30.645 10.7712 31.686 10.2011C32.7483 9.60961 33.9296 9.31384 35.2214 9.31384C36.5174 9.30956 37.6986 9.60532 38.7609 10.2011ZM33.0415 12.1771C32.3659 12.5629 31.805 13.1244 31.4184 13.8017C31.0189 14.4918 30.8192 15.2505 30.8192 16.082C30.8192 16.9136 31.0232 17.6766 31.4268 18.371C31.8178 19.0525 32.3787 19.6183 33.05 20.0169C33.7299 20.4199 34.465 20.6213 35.2638 20.6213C36.0329 20.6256 36.7893 20.4156 37.4479 20.0169C38.115 19.6183 38.6632 19.0525 39.0456 18.371C39.4408 17.6723 39.6405 16.8836 39.632 16.082C39.632 15.2505 39.4365 14.4918 39.0456 13.8017C38.6674 13.1287 38.115 12.5672 37.4479 12.1771C36.785 11.7828 36.0329 11.5771 35.2638 11.5813C34.482 11.5771 33.7171 11.7828 33.0415 12.1771ZM9.97705 3.63867C13.4146 3.63867 18.6071 4.70598 21.0206 7.15351C21.6325 7.77503 22.4356 8.98808 22.4356 10.7712C22.4356 13.9346 19.9159 18.791 17.1369 21.6115C15.7007 23.0689 13.4146 24.972 10.3382 24.972C7.32981 24.972 5.03526 22.906 4.37239 22.2287C1.82289 19.6483 0 15.7306 0 12.0828C0 9.77677 0.650123 7.76217 2.30305 6.0862C3.83275 4.53881 6.47148 3.63867 9.97705 3.63867ZM14.2305 16.2621C15.3905 15.0876 15.7049 13.6388 15.7049 12.8415C15.7049 12.2629 15.5562 11.4185 14.8423 10.6941C13.7503 9.58389 12.535 9.27098 11.2178 9.27098C9.54788 9.27098 8.4261 9.80678 7.67825 10.5612C7.09186 11.1613 6.58621 12.07 6.58621 13.3688C6.58621 14.6633 7.27033 15.9149 8.00968 16.6693C8.69805 17.3637 9.77734 17.878 10.8609 17.878C11.9487 17.878 13.0704 17.4365 14.2305 16.2621Z" fill="#EC6329"/>
</g>
<defs>
<clipPath id="clip0_4772_11271">
<rect width="112" height="32" fill="white"/>
</clipPath>
</defs>
</svg>
