<svg width="130" height="32" viewBox="0 0 130 32" fill="none" xmlns="http://www.w3.org/2000/svg">
<g clip-path="url(#clip0_4772_7398)">
<path d="M33.8827 20.0377C33.566 20.1169 33.1702 20.196 32.7744 20.196C31.9827 20.196 31.666 19.721 31.666 18.9294V15.3669H33.8827C34.4368 15.3669 34.991 14.971 34.991 14.3377C34.991 13.7044 34.516 13.3085 33.8827 13.3085H31.666V12.121C31.666 11.4085 31.1118 10.9335 30.4785 10.9335C29.8452 10.9335 29.291 11.4877 29.291 12.121V19.0085C29.291 20.9877 30.241 22.4127 32.4577 22.4127C33.091 22.4127 33.9618 22.3335 34.5952 22.0169C35.1493 21.7794 35.3077 21.3835 35.3077 20.9877C35.3077 20.4335 34.7535 19.8794 33.8827 20.0377ZM41.7993 12.9919C41.4827 12.9127 40.8493 12.8335 40.2952 12.8335C38.316 12.8335 37.2077 14.021 37.2077 15.8419V21.2252C37.2077 21.8585 37.7618 22.4127 38.3952 22.4127C39.0285 22.4127 39.5827 21.8585 39.5827 21.2252V16.3169C39.5827 15.5252 39.8993 15.2085 40.4535 15.2085C41.0077 15.2085 41.3243 15.3669 41.7993 15.3669C42.5118 15.3669 42.9077 14.7335 42.9077 14.2585C42.8285 13.6252 42.5118 13.2294 41.7993 12.9919ZM48.3702 12.8335C46.1535 12.8335 44.5702 14.2585 44.3327 16.5544C44.3327 17.1085 44.2535 18.0585 44.3327 18.771C44.491 20.9877 46.0744 22.4919 48.4494 22.4919C49.5577 22.4919 50.5868 22.2544 51.2202 21.8585C51.6952 21.5419 51.7744 21.2252 51.7744 20.9085C51.7744 20.2752 51.2202 19.6419 50.2702 19.9585C49.716 20.196 49.0827 20.3544 48.4494 20.3544C47.341 20.3544 46.4702 19.8002 46.4702 18.6919V18.4544H50.9827C51.7744 18.4544 52.1702 17.9794 52.1702 17.2669V16.871C52.2494 14.4169 50.666 12.8335 48.3702 12.8335ZM49.8743 16.871H46.5493C46.5493 15.6835 47.1035 14.8919 48.3702 14.8919C49.4785 14.8919 50.1119 15.6044 50.0327 16.6335C50.0327 16.7919 50.0327 16.871 49.8743 16.871ZM57.8702 12.8335C55.6535 12.8335 54.0702 14.2585 53.8327 16.5544C53.8327 17.1085 53.7535 18.0585 53.8327 18.771C53.991 20.9877 55.5743 22.4919 57.9493 22.4919C59.0577 22.4919 60.0868 22.2544 60.7202 21.8585C61.1952 21.5419 61.2744 21.2252 61.2744 20.9085C61.2744 20.2752 60.7202 19.6419 59.7702 19.9585C59.216 20.196 58.5827 20.3544 57.9493 20.3544C56.841 20.3544 55.9702 19.8002 55.9702 18.6919V18.4544H60.4827C61.2744 18.4544 61.6702 17.9794 61.6702 17.2669V16.871C61.7494 14.4169 60.166 12.8335 57.8702 12.8335ZM59.3743 16.871H56.0494C56.0494 15.6835 56.6035 14.8919 57.8702 14.8919C58.9785 14.8919 59.6118 15.6044 59.5327 16.6335C59.5327 16.7919 59.5327 16.871 59.3743 16.871ZM97.8493 16.7919L96.5827 16.4752C95.791 16.3169 95.5535 16.0794 95.5535 15.6835C95.5535 15.2877 95.9494 14.971 96.8202 14.971C97.2952 14.971 97.8493 15.1294 98.3243 15.3669C98.8785 15.6835 99.5118 15.6044 99.8285 15.2085C100.224 14.8127 100.224 14.1002 99.7494 13.6252C99.116 13.1502 98.0077 12.8335 96.8994 12.8335C94.841 12.8335 93.3369 13.8627 93.3369 15.7627C93.3369 17.2669 94.4452 18.0585 95.8702 18.4544C96.5827 18.6127 96.5035 18.6127 97.1368 18.771C97.8493 18.9294 98.166 19.246 98.166 19.5627C98.166 20.0377 97.7702 20.3544 96.8202 20.3544C96.0285 20.3544 95.316 20.1169 94.7618 19.8002C94.2077 19.4044 93.5744 19.5627 93.2577 20.0377C92.941 20.5127 93.0202 21.146 93.4952 21.4627C94.1285 22.0169 95.1577 22.4919 96.8202 22.4919C98.8785 22.4919 100.462 21.3835 100.462 19.4835C100.462 18.0585 99.591 17.1877 97.8493 16.7919ZM108.854 18.4544C109.645 18.4544 110.041 17.9794 110.041 17.2669V16.871C110.041 14.4169 108.458 12.8335 106.162 12.8335C103.945 12.8335 102.362 14.2585 102.124 16.5544C102.124 17.1085 102.045 18.0585 102.124 18.771C102.283 20.9877 103.866 22.4919 106.241 22.4919C107.349 22.4919 108.379 22.2544 109.012 21.8585C109.487 21.5419 109.566 21.2252 109.566 20.9085C109.566 20.2752 109.012 19.6419 108.062 19.9585C107.508 20.196 106.874 20.3544 106.241 20.3544C105.133 20.3544 104.262 19.8002 104.262 18.6919V18.4544H108.854ZM106.162 14.8919C107.27 14.8919 107.904 15.6044 107.824 16.6335C107.824 16.7919 107.745 16.871 107.666 16.871H104.341C104.341 15.6835 104.974 14.8919 106.162 14.8919ZM77.1869 12.8335C74.8119 12.8335 73.0702 14.3377 72.8327 16.396C72.7535 17.1085 72.7535 18.2169 72.8327 18.9294C72.991 20.9877 74.8119 22.4919 77.1869 22.4919C79.5619 22.4919 81.3035 20.9877 81.4619 18.9294C81.541 18.2169 81.541 17.1877 81.4619 16.4752C81.3035 14.3377 79.5619 12.8335 77.1869 12.8335ZM79.0869 18.5335C79.0077 19.5627 78.2952 20.196 77.1869 20.196C76.0785 20.196 75.366 19.4835 75.2868 18.5335C75.2868 18.0585 75.2868 17.2669 75.2868 16.7919C75.366 15.7627 76.0785 15.1294 77.1869 15.1294C78.2952 15.1294 79.0077 15.8419 79.0869 16.7919C79.166 17.2669 79.166 18.0585 79.0869 18.5335ZM67.766 12.8335C66.8952 12.8335 65.9452 13.1502 65.6285 13.546V11.0127C65.6285 10.3002 65.1535 9.8252 64.5202 9.8252C63.8868 9.8252 63.4118 10.3794 63.4118 11.0127V21.2252C63.4118 21.8585 63.966 22.4127 64.5993 22.4127C65.2327 22.4127 65.7077 21.8585 65.7077 21.2252V15.921C66.1035 15.5252 66.7369 15.2085 67.5285 15.2085C68.4785 15.2085 69.0327 15.7627 69.0327 16.871V21.2252C69.0327 21.9377 69.5077 22.4919 70.141 22.4919C70.8535 22.4919 71.3285 21.9377 71.3285 21.2252V16.7127C71.2493 14.1794 69.9827 12.8335 67.766 12.8335ZM89.9327 12.9127C89.2994 12.9127 88.7452 13.4669 88.7452 14.1002V19.721C88.3493 19.9585 87.7952 20.196 87.0827 20.196C86.1327 20.196 85.4202 19.6419 85.4202 18.5335V14.1002C85.4202 13.3877 84.866 12.8335 84.2327 12.8335C83.5202 12.8335 83.1244 13.3877 83.1244 14.1002V18.6127C83.1244 21.0669 84.5494 22.4127 87.0035 22.4127C88.8244 22.4127 90.091 21.7794 90.6452 21.3835C90.9618 21.2252 91.041 20.9877 91.041 20.5919V14.1002C91.041 13.4669 90.566 12.9127 89.9327 12.9127Z" fill="#3E474F"/>
<path d="M20.5833 8.00407C19.7125 7.52907 18.3667 8.32074 17.575 9.74574L16.0708 12.2791C15.5167 13.3082 15.5958 14.5749 16.3083 15.6041L16.3875 15.6832C17.1 16.6332 17.9708 17.5832 18.2875 17.8999C18.4458 18.0582 18.6042 18.2957 18.6833 18.6124C18.9208 19.4832 18.4458 20.4332 17.4958 20.6707C16.625 20.9082 15.675 20.4332 15.4375 19.4832C15.3583 19.2457 15.3583 19.0082 15.3583 18.8499C15.4375 18.4541 15.2792 17.8999 14.725 17.2666C14.1708 16.7124 13.1417 17.8207 12.7458 18.9291V19.0082C12.4292 20.1166 12.1917 21.1457 12.2708 21.2249C12.2708 21.3041 12.35 21.3041 12.35 21.3832C12.825 22.3332 12.5083 23.4416 11.5583 23.9166C10.6083 24.3916 9.5 24.0749 9.025 23.1249C8.55 22.1749 8.86667 21.0666 9.81667 20.5916C9.89583 20.5916 9.89583 20.5124 9.975 20.5124C10.0542 20.5124 10.2125 20.0374 10.45 19.4041C10.6083 18.8499 10.6875 18.6124 10.7667 18.3749C10.8458 18.0582 11.0042 17.2666 10.925 16.9499C10.8458 16.5541 10.45 16.5541 10.0542 16.7916C9.81667 16.9499 9.34167 17.3457 9.18333 17.5041C8.7875 17.8207 8.47083 18.2957 8.3125 18.6916C8.23333 18.8499 8.075 19.0874 7.91667 19.2457C7.20417 19.7999 6.175 19.7207 5.54167 19.0082C4.9875 18.2957 5.06667 17.2666 5.77917 16.6332C6.01667 16.4749 6.25417 16.3166 6.49167 16.3166C6.8875 16.2374 8.3125 15.3666 9.18333 14.7332C9.34167 14.6541 9.57917 14.4166 9.65833 14.3374C9.89583 14.0207 9.65833 13.7832 9.42083 13.7832C8.70833 13.8624 7.91667 13.9416 7.75833 14.1791C7.67917 14.2582 7.6 14.4166 7.44167 14.4957C6.80833 14.9707 5.85833 14.8124 5.38333 14.1791C4.90833 13.5457 5.06667 12.5957 5.7 12.1207C5.9375 11.8832 6.33333 11.8041 6.57083 11.8041C7.125 11.8041 8.55 12.1207 9.65833 11.8832L9.975 11.8041C11.1625 11.5666 12.5875 10.5374 13.1417 9.50824C13.1417 9.50824 13.6958 8.55824 14.3292 7.37074C15.0417 6.18324 14.9625 4.8374 14.25 4.44157L12.9042 3.6499C12.1917 3.25407 11.1625 3.25407 10.45 3.6499L1.26667 8.8749C0.554167 9.27074 0 10.2207 0 11.0124V21.1457C0 21.9374 0.554167 22.8874 1.26667 23.2832L10.45 28.5082C11.1625 28.9041 12.2708 28.9041 12.9042 28.5082L22.0875 23.2832C22.8 22.8874 23.3542 21.9374 23.3542 21.1457V11.0124C23.3542 10.2207 22.8 9.27074 22.0875 8.8749C22.0875 8.8749 21.4542 8.47907 20.5833 8.00407Z" fill="#5FCF80"/>
</g>
<defs>
<clipPath id="clip0_4772_7398">
<rect width="110" height="32" fill="white"/>
</clipPath>
</defs>
</svg>
