<svg width="40" height="40" viewBox="0 0 40 40" fill="none" xmlns="http://www.w3.org/2000/svg">
<circle cx="20" cy="20" r="18" fill="#FF8C00"/>
<path d="M26.4363 24.1256C26.408 23.8784 26.2659 23.3115 25.8965 23.1659H25.897C25.712 23.0931 25.5558 23.151 25.4852 23.2821C25.3713 23.486 25.4565 23.8784 25.6697 24.2278C25.8824 24.5768 26.0814 24.7513 26.2235 24.7513C26.3656 24.7513 26.4932 24.5768 26.4363 24.1256Z" fill="white"/>
<path d="M24.4485 25.1147C24.2213 24.9113 23.9657 24.8096 23.7384 24.8096C23.5398 24.8096 23.3836 24.8819 23.2839 25.013C23.0288 25.3326 23.1422 25.9148 23.5398 26.2638C23.7102 26.4239 23.9657 26.5111 24.2071 26.5111C24.4485 26.5111 24.6613 26.4094 24.7892 26.2494C25.0165 25.9293 24.8885 25.4931 24.4485 25.1147Z" fill="white"/>
<path d="M18.7689 29.0128C18.769 29.0128 18.7691 29.0128 18.7691 29.0128H18.7687C18.7688 29.0128 18.7688 29.0128 18.7689 29.0128C13.3729 29.0126 9 24.5328 9 19.0061C9 13.4794 13.3735 9 18.7687 9C24.1643 9 28.5378 13.4798 28.5378 19.0061C28.5378 20.8822 28.0268 22.6424 27.1609 24.1405C27.1322 24.1839 27.0612 24.1695 27.047 24.1112C26.7063 21.6534 25.2438 20.3004 23.114 19.8935C22.9291 19.8641 22.9008 19.748 23.1422 19.719C23.7954 19.6607 24.7182 19.6752 25.201 19.7624C25.2292 19.5152 25.2438 19.2534 25.2438 18.9917C25.2438 15.3409 22.347 12.3737 18.7828 12.3737C15.2191 12.3737 12.3223 15.3409 12.3223 18.9917C12.3223 22.6424 15.2191 25.6097 18.7833 25.6097H19.0812C18.98 25.0192 18.9371 24.4198 18.9532 23.8205C18.9677 23.4132 19.0529 23.3549 19.2233 23.6749C20.1178 25.2603 21.3959 26.6856 23.8947 27.2529C25.9393 27.7185 27.984 28.2565 30.1849 31.1216C30.3835 31.3688 30.0856 31.6306 29.8583 31.4272C27.615 29.3907 25.5704 28.7216 23.7102 28.7216C21.6228 28.7365 20.2031 29.0127 18.7689 29.0128Z" fill="white"/>
<path d="M18.7691 29.0128C18.7691 29.0128 18.769 29.0128 18.7689 29.0128C18.7688 29.0128 18.7688 29.0128 18.7687 29.0128H18.7691Z" fill="white"/>
</svg>
