<svg width="40" height="40" viewBox="0 0 40 40" fill="none" xmlns="http://www.w3.org/2000/svg">
<path fill-rule="evenodd" clip-rule="evenodd" d="M17.8967 13.5297C17.8967 12.1582 19.022 11.6308 20.8857 11.6308C23.5582 11.6308 26.9341 12.4396 29.6066 13.8813V5.61758C26.6879 4.45714 23.8044 4 20.8857 4C13.7473 4 9 7.72747 9 13.9516C9 23.6571 22.3626 22.1099 22.3626 26.2945C22.3626 27.9121 20.956 28.4396 18.9868 28.4396C16.0681 28.4396 12.3407 27.244 9.38681 25.6264V33.9956C12.6571 35.4022 15.9626 36 18.9868 36C26.3011 36 31.3297 32.378 31.3297 26.0835C31.2945 15.6044 17.8967 17.4681 17.8967 13.5297Z" fill="#635BFF"/>
</svg>
