<svg width="40" height="40" viewBox="0 0 40 40" fill="none" xmlns="http://www.w3.org/2000/svg">
<path d="M31.7161 9.01936C31.6903 8.83871 31.5355 8.73548 31.4065 8.73548C31.2774 8.73548 28.5161 8.52904 28.5161 8.52904C28.5161 8.52904 26.6065 6.61936 26.3742 6.4129C26.1677 6.20645 25.7548 6.25807 25.6 6.30968C25.5742 6.30968 25.1871 6.43871 24.5161 6.64516C23.871 4.76129 22.7355 3.05806 20.7484 3.05806C20.6968 3.05806 20.6452 3.05806 20.5677 3.05806C20.0258 2.33548 19.3032 2 18.7097 2C14.0645 2 11.8452 7.80646 11.1484 10.7484C9.34194 11.3161 8.05162 11.7032 7.89678 11.7548C6.89033 12.0645 6.86453 12.0903 6.73549 13.0452C6.63226 13.7677 4 34.1548 4 34.1548L24.5161 38L35.6387 35.6C35.6387 35.5742 31.7419 9.2 31.7161 9.01936ZM23.3806 6.95484C22.8645 7.10967 22.271 7.29032 21.6516 7.49677C21.6516 7.36774 21.6516 7.26451 21.6516 7.10967C21.6516 5.97419 21.4968 5.04516 21.2387 4.29677C22.271 4.45162 22.9419 5.6129 23.3806 6.95484ZM19.9484 4.55484C20.2323 5.27742 20.4129 6.28387 20.4129 7.67742C20.4129 7.75484 20.4129 7.80645 20.4129 7.88387C19.2774 8.24516 18.0645 8.60645 16.8258 8.99355C17.5226 6.33548 18.8387 5.04516 19.9484 4.55484ZM18.5806 3.23871C18.7871 3.23871 18.9935 3.31613 19.1742 3.44516C17.6774 4.14193 16.1032 5.89678 15.4323 9.43226C14.4516 9.74194 13.4968 10.0258 12.5935 10.3097C13.3677 7.6258 15.2516 3.23871 18.5806 3.23871Z" fill="#95BF47"/>
<path d="M31.4055 8.70943C31.2765 8.70943 28.5152 8.50297 28.5152 8.50297C28.5152 8.50297 26.6055 6.59329 26.3733 6.38684C26.2959 6.30942 26.1926 6.25781 26.0894 6.25781L24.541 37.9997L35.6636 35.5997C35.6636 35.5997 31.7668 9.19975 31.741 9.0191C31.6894 8.83846 31.5346 8.73524 31.4055 8.70943Z" fill="#5E8E3E"/>
<path d="M20.7483 14.8517L19.3806 18.9292C19.3806 18.9292 18.1677 18.284 16.6967 18.284C14.529 18.284 14.4258 19.6518 14.4258 19.9872C14.4258 21.8453 19.2774 22.5679 19.2774 26.9292C19.2774 30.3614 17.1096 32.5808 14.1677 32.5808C10.6322 32.5808 8.85156 30.3872 8.85156 30.3872L9.8064 27.2646C9.8064 27.2646 11.6645 28.8646 13.2129 28.8646C14.2451 28.8646 14.658 28.0646 14.658 27.4711C14.658 25.0453 10.6838 24.9421 10.6838 20.9421C10.6838 17.5872 13.0838 14.3356 17.9612 14.3356C19.8193 14.3098 20.7483 14.8517 20.7483 14.8517Z" fill="white"/>
</svg>
